<?xml version="1.0" standalone="no"?>
<!DOCTYPE svg PUBLIC "-//W3C//DTD SVG 1.1//EN" "http://www.w3.org/Graphics/SVG/1.1/DTD/svg11.dtd" >
<svg xmlns="http://www.w3.org/2000/svg">
<metadata></metadata>
<defs>
<font id="mercurymedium" horiz-adv-x="1114" >
<font-face units-per-em="2048" ascent="1489" descent="-559" />
<missing-glyph horiz-adv-x="471" />
<glyph unicode="&#xfb01;" horiz-adv-x="1212" d="M61 901v45q0 31 22 52.5t54 21.5h107v221q0 107 73.5 177.5t190.5 70.5h70q32 0 52.5 -20t20.5 -52v-45q0 -32 -20.5 -52t-52.5 -20h-70q-32 0 -50 -17.5t-18 -47.5v-215h508q31 0 51.5 -20.5t20.5 -51.5v-874q0 -31 -21.5 -52.5t-52.5 -21.5h-51q-31 0 -51.5 21.5 t-20.5 52.5v755h-383v-755q0 -31 -19.5 -52.5t-49.5 -21.5h-56q-29 0 -50 21.5t-21 52.5v755h-107q-32 0 -54 21t-22 51zM788 1348q0 58 38.5 96.5t95.5 38.5t96 -38.5t39 -96.5t-39 -96t-96 -38t-95.5 38t-38.5 96z" />
<glyph unicode="&#xfb02;" horiz-adv-x="1243" d="M61 901v45q0 31 22 52.5t54 21.5h107v221q0 107 73.5 177.5t190.5 70.5h436q30 0 51 -21t21 -51v-1167q0 -25 17 -41t44 -16h51q33 0 53.5 -19.5t20.5 -50.5v-51q0 -32 -20 -52t-54 -20h-69q-105 0 -173.5 68.5t-68.5 171.5v1065h-309q-32 0 -50 -19t-18 -49v-217h144 q32 0 53.5 -21.5t21.5 -52.5v-45q0 -30 -21.5 -51t-53.5 -21h-144v-755q0 -31 -19.5 -52.5t-49.5 -21.5h-56q-29 0 -50 21.5t-21 52.5v755h-107q-32 0 -54 21t-22 51z" />
<glyph unicode="&#xfb03;" horiz-adv-x="1792" d="M61 901v45q0 31 22 52.5t54 21.5h107v221q0 107 73.5 177.5t190.5 70.5h70q32 0 52.5 -20t20.5 -52v-45q0 -32 -20.5 -52t-52.5 -20h-70q-32 0 -50 -17.5t-18 -47.5v-215h383v221q0 107 73.5 177.5t190.5 70.5h70q32 0 53 -20t21 -52v-45q0 -32 -21 -52t-53 -20h-70 q-32 0 -49.5 -17.5t-17.5 -47.5v-215h508q31 0 51 -20.5t20 -51.5v-874q0 -31 -21 -52.5t-52 -21.5h-51q-31 0 -51.5 21.5t-20.5 52.5v755h-383v-755q0 -31 -20 -52.5t-50 -21.5h-55q-29 0 -50.5 21.5t-21.5 52.5v755h-383v-755q0 -31 -19.5 -52.5t-49.5 -21.5h-56 q-29 0 -50 21.5t-21 52.5v755h-107q-32 0 -54 21t-22 51zM1368 1348q0 58 38 96.5t95 38.5t96 -38.5t39 -96.5t-39 -96t-96 -38t-95 38t-38 96z" />
<glyph unicode="&#xfb04;" horiz-adv-x="1826" d="M61 901v45q0 31 22 52.5t54 21.5h107v221q0 107 73.5 177.5t190.5 70.5h70q32 0 52.5 -20t20.5 -52v-45q0 -32 -20.5 -52t-52.5 -20h-70q-32 0 -50 -17.5t-18 -47.5v-215h383v221q0 107 73.5 177.5t190.5 70.5h441q30 0 50.5 -20.5t20.5 -51.5v-1167q0 -25 17 -41t45 -16 h51q33 0 53.5 -19.5t20.5 -50.5v-51q0 -32 -20 -52t-54 -20h-67q-105 0 -173.5 68.5t-68.5 171.5v1065h-316q-31 0 -49 -19t-18 -49v-217h143q32 0 54 -21.5t22 -52.5v-45q0 -30 -22 -51t-54 -21h-143v-755q0 -31 -20 -52.5t-50 -21.5h-55q-29 0 -50.5 21.5t-21.5 52.5v755 h-383v-755q0 -31 -19.5 -52.5t-49.5 -21.5h-56q-29 0 -50 21.5t-21 52.5v755h-107q-32 0 -54 21t-22 51z" />
<glyph horiz-adv-x="0" />
<glyph horiz-adv-x="682" />
<glyph unicode=" "  horiz-adv-x="471" />
<glyph unicode="&#x09;" horiz-adv-x="471" />
<glyph unicode="&#xa0;" horiz-adv-x="471" />
<glyph unicode="!" horiz-adv-x="581" d="M143 147q0 64 43 106t105 42t104.5 -42t42.5 -106t-42.5 -105.5t-104.5 -41.5t-105 41.5t-43 105.5zM184 1415q0 31 22 52.5t54 21.5h66q31 0 52 -21.5t21 -52.5l-8 -917q0 -32 -21.5 -54t-52.5 -22h-49q-32 0 -53.5 22t-21.5 54z" />
<glyph unicode="&#x22;" horiz-adv-x="763" d="M125 1425q-1 28 17.5 46t45.5 18h66q29 0 47 -17.5t18 -46.5l-12 -426q0 -27 -16 -44t-43 -17h-51q-26 0 -41 17t-17 44zM444 1425q0 29 18.5 46.5t45.5 17.5h65q30 0 48.5 -17.5t17.5 -46.5l-12 -426q0 -27 -16.5 -44t-43.5 -17h-49q-24 0 -39.5 17t-17.5 44z" />
<glyph unicode="#" horiz-adv-x="1476" d="M102 498v43q0 31 21 52t53 21h150l65 232h-94q-31 0 -51.5 21t-20.5 53v43q0 31 20.5 52t51.5 21h149l115 398q8 29 33.5 44.5t54.5 8.5l51 -12q32 -9 44 -36t4 -59l-99 -344h346l115 398q8 29 33.5 44.5t54.5 8.5l51 -12q32 -8 43.5 -35.5t3.5 -59.5l-98 -344h102 q31 0 52.5 -21t21.5 -52v-43q0 -32 -21.5 -53t-52.5 -21h-157l-66 -232h103q31 0 52 -21t21 -52v-43q0 -32 -21 -54t-52 -22h-158l-107 -371q-9 -29 -36 -42.5t-58 -4.5l-43 12q-33 9 -45.5 36t-3.5 59l90 311h-346l-106 -371q-9 -29 -36.5 -42.5t-58.5 -4.5l-43 12 q-33 9 -45.5 36t-3.5 59l90 311h-94q-32 0 -53 22t-21 54zM528 614h346l66 232h-346z" />
<glyph unicode="$" horiz-adv-x="1339" d="M125 492q-1 32 20 53.5t54 21.5h67q29 0 53 -22t27 -51q21 -247 232 -291v485l-23 8q-70 22 -129.5 53t-116.5 78t-90 115t-33 150q0 170 108 273.5t284 127.5v149q0 32 21.5 54t53.5 22h54q31 0 53 -22t22 -54v-149q173 -24 276.5 -127.5t110.5 -273.5q2 -31 -20 -51.5 t-57 -20.5h-60q-32 0 -54 20.5t-24 51.5q-6 78 -51 128.5t-121 71.5l-2 -440l51 -12q192 -52 289 -148.5t97 -263.5q0 -177 -118.5 -293t-318.5 -141v-289q0 -32 -22 -55t-53 -23h-52q-32 0 -53.5 22.5t-21.5 55.5v289q-203 26 -325 153.5t-128 344.5zM406 1098 q0 -119 172 -185v383q-82 -20 -127 -71.5t-45 -126.5zM780 201q101 20 156 79.5t55 147.5q0 80 -49.5 128.5t-161.5 76.5v-432z" />
<glyph unicode="%" horiz-adv-x="1429" d="M102 1194q0 131 76.5 221t198.5 90t198 -90t76 -221t-76.5 -223t-197.5 -92t-198 92t-77 223zM186 85q-4 29 11 52l876 1321q15 25 43 29.5t51 -12.5l37 -23q25 -17 30.5 -45.5t-11.5 -54.5l-869 -1317q-16 -25 -44 -32.5t-58 9.5l-39 27q-23 17 -27 46zM283 1194 q0 -61 25 -103t69 -42t69 41t25 104q0 60 -25.5 100.5t-68.5 40.5t-68.5 -40.5t-25.5 -100.5zM778 299q0 131 76.5 221t198.5 90t198 -90t76 -221t-76.5 -223t-197.5 -92t-198 92t-77 223zM958 299q0 -61 25.5 -103t69.5 -42t69 41t25 104q0 60 -25.5 100.5t-68.5 40.5 t-69 -40.5t-26 -100.5z" />
<glyph unicode="&#x26;" horiz-adv-x="1390" d="M123 422q0 152 82.5 261t263.5 222q-64 72 -103.5 154t-39.5 153q0 129 88.5 211t228.5 82t225.5 -81.5t85.5 -211.5q0 -193 -211 -356l230 -326q41 138 41 293q0 33 18.5 54.5t50.5 21.5h64q32 0 51 -21.5t19 -54.5q2 -114 -26 -242t-85 -241l172 -248q23 -28 9.5 -60 t-58.5 -32h-88q-21 0 -44.5 12.5t-35.5 30.5l-80 115q-165 -172 -408 -172q-206 0 -328 123.5t-122 312.5zM334 430q2 -107 72 -178.5t176 -71.5q176 0 286 142l-290 428q-44 -28 -75.5 -51t-66 -54.5t-55.5 -62t-34.5 -70t-12.5 -82.5zM539 1217q0 -47 28 -104t72 -101 q111 84 111 205q0 43 -31.5 71.5t-73.5 28.5q-44 0 -75 -28.5t-31 -71.5z" />
<glyph unicode="'" horiz-adv-x="489" d="M143 1425q0 29 18.5 46.5t45.5 17.5h74q29 0 47 -17.5t18 -46.5l-14 -426q0 -27 -16.5 -44t-45.5 -17h-53q-26 0 -42.5 17.5t-16.5 43.5z" />
<glyph unicode="(" horiz-adv-x="800" d="M154 758q0 523 403 872q22 20 51 22.5t54 -18.5l34 -30q21 -20 21.5 -47t-23.5 -50q-51 -47 -92 -93.5t-89 -118t-80 -146.5t-53.5 -177.5t-21.5 -213.5t21.5 -213.5t53.5 -178.5t79.5 -147.5t89.5 -118.5t92 -94q24 -23 23.5 -49.5t-21.5 -46.5l-34 -31 q-25 -21 -54 -18.5t-51 22.5q-403 349 -403 875z" />
<glyph unicode=")" horiz-adv-x="800" d="M82.5 -43.5q-0.5 26.5 23.5 49.5q50 47 92 94t89.5 118.5t79.5 147.5t53.5 178.5t21.5 213.5t-21.5 213.5t-53.5 177.5t-80 146.5t-89 118t-92 93.5q-24 23 -23.5 50t21.5 47l35 30q25 21 54 18.5t51 -22.5q403 -349 403 -872q0 -526 -403 -875q-22 -20 -51 -22.5 t-54 18.5l-35 31q-21 20 -21.5 46.5z" />
<glyph unicode="*" horiz-adv-x="899" d="M88 1212l12 39q7 24 25.5 33.5t42.5 3.5l197 -53l6 201q3 53 59 53h41q56 0 59 -53l7 -201l196 53q53 13 68 -37l12 -39q15 -52 -35 -71l-192 -72l112 -164q37 -50 -12 -82l-33 -24q-21 -14 -44 -11t-38 23l-120 160l-121 -160q-15 -20 -38 -23t-44 11l-33 24 q-50 30 -12 82l112 164l-192 72q-50 19 -35 71z" />
<glyph unicode="+" horiz-adv-x="1048" d="M102 494v47q0 31 21.5 52t52.5 21h250v252q0 31 21.5 52.5t52.5 21.5h49q32 0 54 -21.5t22 -52.5v-252h249q30 0 51 -21t21 -52v-47q0 -31 -21.5 -52.5t-50.5 -21.5h-249v-254q0 -30 -22 -52t-54 -22h-49q-30 0 -52 22t-22 52v254h-250q-31 0 -52.5 21.5t-21.5 52.5z" />
<glyph unicode="," horiz-adv-x="546" d="M85.5 -123.5q-7.5 27.5 6.5 57.5l146 340q12 28 40 38t54 -3l59 -26q30 -12 39 -42t-4 -59l-164 -332q-12 -27 -38 -37t-56 3l-45 20q-30 13 -37.5 40.5z" />
<glyph unicode="-" horiz-adv-x="815" d="M123 492v49q0 31 21.5 52t52.5 21h421q31 0 52.5 -21t21.5 -52v-49q0 -31 -21.5 -52.5t-52.5 -21.5h-421q-31 0 -52.5 21.5t-21.5 52.5z" />
<glyph unicode="." horiz-adv-x="499" d="M102 147q0 64 43 106t105 42t104.5 -42t42.5 -106t-42.5 -105.5t-104.5 -41.5t-105 41.5t-43 105.5z" />
<glyph unicode="/" d="M84.5 76q-7.5 25 7.5 51l766 1329q15 26 40.5 31.5t49.5 -8.5l47 -27q26 -15 33 -39.5t-8 -50.5l-766 -1329q-15 -26 -40.5 -32t-51.5 9l-45 27q-25 14 -32.5 39z" />
<glyph unicode="0" horiz-adv-x="1198" d="M104 725q0 347 132.5 545t363.5 198t363.5 -198t132.5 -545q0 -344 -133 -542.5t-363 -198.5t-363 198.5t-133 542.5zM315 725q0 -245 74.5 -394t210.5 -149t210.5 149t74.5 394q0 249 -74.5 398t-210.5 149t-210.5 -149t-74.5 -398z" />
<glyph unicode="1" horiz-adv-x="1044" d="M113 1053q4 28 30 45q100 62 181.5 142t124.5 163q26 51 81 51h58q32 0 53 -21t21 -53v-1181h243q35 0 55.5 -19.5t20.5 -52.5v-55q0 -33 -21 -52.5t-55 -19.5h-698q-35 0 -55.5 19t-20.5 53v53q0 33 20.5 53.5t55.5 20.5h246v919q-34 -57 -92 -111t-105 -77 q-24 -13 -50.5 -8.5t-43.5 28.5l-35 51q-18 24 -14 52z" />
<glyph unicode="2" horiz-adv-x="1157" d="M102 76v59q0 37 35 76l563 573q48 48 82.5 111.5t34.5 122.5q0 119 -67 188.5t-183 69.5q-115 0 -181.5 -73t-66.5 -191q0 -31 -21.5 -52.5t-53.5 -21.5h-58q-32 0 -52.5 21.5t-20.5 52.5q0 203 126 329.5t330 126.5q203 0 331 -123t128 -321q0 -196 -184 -371l-461 -454 h586q35 0 55 -19.5t20 -52.5v-51q0 -35 -20 -55.5t-55 -20.5h-793q-31 0 -52.5 22t-21.5 54z" />
<glyph unicode="3" horiz-adv-x="1198" d="M61 444q0 32 21 54t51 22h62q33 0 54 -21.5t21 -54.5q1 -80 43 -140.5t108.5 -90t145.5 -29.5q129 0 213 66.5t84 181.5q0 109 -73 170.5t-179 61.5h-88q-31 0 -51 19.5t-20 51.5v51q0 31 20.5 52.5t50.5 21.5h74q81 0 144 64.5t63 144.5q0 90 -65 146.5t-175 56.5 q-98 0 -163 -54t-70 -139q-2 -30 -24 -50.5t-54 -20.5h-57q-32 0 -53 20.5t-21 50.5q3 115 63.5 204.5t160 137t218.5 47.5q190 0 318.5 -107.5t128.5 -287.5q0 -91 -49.5 -171t-122.5 -120q42 -19 79.5 -46.5t74.5 -69.5t59 -102.5t22 -131.5q0 -202 -143 -325t-367 -123 q-140 0 -254 56t-182 162t-68 242z" />
<glyph unicode="4" horiz-adv-x="1191" d="M31 494v47q0 42 32 88l584 776q39 49 101 49h59q35 0 55.5 -20t20.5 -54v-766h188q29 0 49.5 -21t20.5 -50v-51q0 -32 -20 -53t-50 -21h-188v-342q0 -32 -21.5 -54t-52.5 -22h-61q-31 0 -52.5 22t-21.5 54v342h-570q-31 0 -52 22t-21 54zM281 614h395v523z" />
<glyph unicode="5" horiz-adv-x="1198" d="M55 410q-5 33 16.5 57.5t57.5 24.5h59q33 0 53 -19.5t25 -48.5q24 -107 109 -174.5t205 -67.5q152 0 242.5 91t90.5 239q0 146 -86.5 238t-238.5 92q-83 0 -161 -42t-122 -106q-33 -51 -80 -51h-53q-39 0 -57.5 25t-12.5 57l129 668q5 26 25 43.5t53 17.5h666 q32 0 54 -20.5t22 -51.5v-53q0 -31 -22 -51.5t-54 -20.5h-574l-71 -333q52 47 129 76.5t151 29.5q226 1 368 -143.5t142 -374.5q0 -232 -154 -380t-391 -148q-199 0 -344.5 122t-175.5 304z" />
<glyph unicode="6" horiz-adv-x="1198" d="M106 623q-3 96 3 182q12 143 51 261.5t104 209.5t162.5 141.5t218.5 50.5q160 0 264 -80t154 -217q12 -29 1.5 -57t-44.5 -39l-55 -20q-29 -10 -59.5 3.5t-39.5 39.5q-30 82 -82 130t-141 48q-102 0 -177.5 -67.5t-111.5 -175.5t-35 -238q55 66 139.5 108.5t176.5 42.5 q216 0 349.5 -131t133.5 -346q0 -207 -139.5 -346t-355.5 -139q-140 0 -260.5 69.5t-180.5 192.5q-69 142 -76 377zM330 475q4 -133 85 -213t208 -80q121 0 201.5 79.5t80.5 207.5t-79.5 206.5t-202.5 78.5q-122 0 -207.5 -78t-85.5 -201z" />
<glyph unicode="7" horiz-adv-x="1126" d="M61 1327v55q0 31 20.5 51.5t51.5 20.5h838q32 0 51.5 -21.5t19.5 -52.5v-69q0 -40 -32 -68q-50 -40 -102 -105.5t-107 -171t-97 -231t-69 -298.5t-27 -361q0 -32 -21 -54t-52 -22h-68q-32 0 -54 22t-22 54q0 212 35.5 408.5t93 343.5t117.5 252t123 177h-627 q-30 0 -51 19.5t-21 50.5z" />
<glyph unicode="8" horiz-adv-x="1198" d="M92 426q0 224 211 358q-145 116 -145 285q0 92 36 168.5t97 126t140.5 77t168.5 27.5q118 0 217 -46t161 -138.5t62 -214.5q0 -169 -145 -285q211 -134 211 -356q0 -198 -143 -321t-363 -123q-223 0 -365.5 122t-142.5 320zM307 428q0 -112 84 -179t209 -67 q124 0 207.5 67t83.5 179q0 115 -85.5 185.5t-205.5 70.5q-121 0 -207 -70.5t-86 -185.5zM369 1069q0 -86 65.5 -141.5t165.5 -55.5q99 0 164 55.5t65 141.5q0 91 -65 148t-164 57q-101 0 -166 -57t-65 -148z" />
<glyph unicode="9" horiz-adv-x="1198" d="M82 983q0 206 141.5 345.5t354.5 139.5q138 0 257.5 -72.5t180.5 -197.5q71 -147 78 -369q3 -83 -4 -182q-13 -143 -52 -261.5t-104 -209.5t-162.5 -141.5t-218.5 -50.5q-160 0 -266 79.5t-154 215.5q-12 29 -1 56t44 40l57 22q34 14 61.5 2t37.5 -45q55 -173 223 -176 q96 -2 170.5 63t113.5 173t38 237q-51 -63 -136 -103t-178 -40q-211 0 -346 136t-135 339zM293 985q0 -127 81 -206t204 -79q120 0 203 79.5t83 199.5q0 131 -79.5 212t-206.5 81q-121 0 -203 -80t-82 -207z" />
<glyph unicode=":" horiz-adv-x="512" d="M113 143q0 62 42 103t101 41t101 -41t42 -103t-41.5 -102.5t-101.5 -40.5t-101.5 40.5t-41.5 102.5zM113 762q0 62 41.5 102.5t101.5 40.5t101.5 -40.5t41.5 -102.5t-42 -103t-101 -41t-101 41t-42 103z" />
<glyph unicode=";" horiz-adv-x="512" d="M46.5 -123.5q-7.5 27.5 6.5 57.5l146 340q12 28 40 38t54 -3l59 -26q30 -12 39.5 -43t-4.5 -58l-164 -332q-12 -27 -38 -37t-56 3l-45 20q-30 13 -37.5 40.5zM119 762q0 62 41.5 102.5t101.5 40.5t102 -40.5t42 -102.5t-42 -103t-102 -41q-59 0 -101 41t-42 103z" />
<glyph unicode="&#x3c;" horiz-adv-x="1202" d="M102 594v49q0 14 12.5 34.5t30.5 31.5l809 532q24 16 56 10t49 -32l26 -39q19 -31 12.5 -60t-32.5 -45l-659 -422l-64 -35l64 -34l659 -424q25 -15 31.5 -44.5t-11.5 -60.5l-28 -43q-17 -23 -50.5 -28t-58.5 10l-803 530q-43 29 -43 70z" />
<glyph unicode="=" horiz-adv-x="1048" d="M102 319v48q0 29 21 50t51 21h698q31 0 52.5 -21t21.5 -50v-48q0 -32 -21.5 -52.5t-52.5 -20.5h-698q-31 0 -51.5 20.5t-20.5 52.5zM102 662v47q0 32 20.5 52.5t51.5 20.5h698q31 0 52.5 -20.5t21.5 -52.5v-47q0 -29 -21.5 -50.5t-52.5 -21.5h-698q-30 0 -51 21t-21 51z " />
<glyph unicode="&#x3e;" horiz-adv-x="1202" d="M104.5 1120q-6.5 29 12.5 60l26 39q17 26 49 32t56 -10l809 -532q18 -11 30.5 -31.5t12.5 -34.5v-49q0 -41 -43 -70l-803 -530q-25 -15 -58.5 -10t-50.5 28l-28 43q-18 31 -11.5 60.5t31.5 44.5l660 424l63 34l-63 35l-660 422q-26 16 -32.5 45z" />
<glyph unicode="?" horiz-adv-x="1079" d="M84 1042q-8 195 118 329t335 134q199 0 329 -118t129 -318q-1 -103 -56 -193.5t-134 -148.5q-54 -39 -81 -61t-56.5 -52.5t-41.5 -59.5t-12 -62q0 -29 -21 -49.5t-52 -20.5h-58q-31 0 -53 20.5t-22 49.5q0 47 15.5 91.5t34.5 75.5t60.5 73t67.5 64t82 68q53 45 85 92.5 t33 112.5q3 112 -68 177t-186 65q-121 0 -186.5 -78t-54.5 -189q3 -32 -18 -53.5t-58 -21.5h-59q-31 0 -50.5 20.5t-21.5 52.5zM367 147q0 64 42.5 106t104.5 42t105 -42t43 -106t-43 -105.5t-105 -41.5t-104.5 41.5t-42.5 105.5z" />
<glyph unicode="@" horiz-adv-x="1536" d="M143 289v585q0 259 171.5 426.5t449.5 167.5q285 0 457 -165.5t172 -425.5v-539q0 -109 -62 -167t-164 -58q-53 0 -102 21.5t-72 49.5q-72 -69 -182 -69h-88q-148 0 -234 69.5t-86 206.5q0 123 86 183.5t224 62.5l125 2q81 0 108 37q3 81 -43 130.5t-137 49.5 q-71 0 -114.5 -33t-51.5 -80q-5 -24 -23.5 -39.5t-44.5 -15.5h-57q-29 0 -46.5 20.5t-12.5 47.5q21 121 114 192.5t240 71.5q168 0 260 -96t92 -258v-338q0 -19 13.5 -31t35.5 -12q23 0 35.5 13t12.5 34v545q0 198 -123.5 312t-331.5 114q-201 0 -323 -115.5t-122 -313.5 v-587q0 -350 400 -350h342q29 0 48 -19.5t19 -48.5v-37q0 -29 -19 -48.5t-48 -19.5h-338q-276 0 -428 131.5t-152 393.5zM592 389q0 -98 129 -98h96q57 0 89.5 30t37.5 72v117q-35 -33 -106 -33l-131 -2q-52 0 -83.5 -23.5t-31.5 -62.5z" />
<glyph unicode="A" horiz-adv-x="1423" d="M78 80l524 1356q9 24 28 38.5t42 14.5h82q48 0 69 -53l525 -1356q4 -12 4 -23q0 -19 -11 -33q-18 -24 -53 -24h-84q-56 0 -74 49l-135 348h-565l-137 -348q-8 -20 -28.5 -34.5t-43.5 -14.5h-80q-39 0 -57 24q-11 15 -11 33q0 11 5 23zM502 602h420l-211 563z" />
<glyph unicode="B" horiz-adv-x="1437" d="M205 76v1335q0 32 22.5 55t53.5 23h438q195 1 317 -115q120 -114 119 -293v-6q0 -64 -30 -135t-72 -113q116 -57 189 -159.5t73 -231.5q0 -197 -124 -316.5t-323 -119.5h-587q-31 0 -53.5 22.5t-22.5 53.5zM420 203h442q104 0 170 63t66 166q0 105 -70.5 170.5 t-175.5 65.5h-432v-465zM420 874h366q64 22 110 74q47 54 46 130q0 91 -60 148q-62 58 -161 58h-301v-410z" />
<glyph unicode="C" horiz-adv-x="1468" d="M133 743q0 340 174.5 551t462.5 211q203 0 352.5 -118t196.5 -312q8 -30 -5 -54.5t-42 -33.5l-62 -18q-31 -11 -59.5 3t-38.5 46q-41 131 -126.5 208.5t-215.5 78.5h-3q-192 0 -306 -152q-115 -153 -115 -408q0 -161 49.5 -286.5t143 -197t217.5 -71.5q131 0 219 61 t145 177q26 57 86 57h76q36 -1 54 -29q9 -15 10 -33q0 -15 -7 -32q-165 -407 -585 -407q-185 0 -327 99t-218 271.5t-76 388.5z" />
<glyph unicode="D" horiz-adv-x="1497" d="M205 76v1335q0 32 21.5 55t52.5 23h362q324 0 523.5 -205t199.5 -543q0 -162 -55 -301t-150.5 -235t-228.5 -150.5t-285 -54.5h-366q-31 0 -52.5 22.5t-21.5 53.5zM416 203h235q226 0 364 150.5t138 387.5q0 246 -136 395.5t-368 149.5h-233v-1083z" />
<glyph unicode="E" horiz-adv-x="1288" d="M205 76v1335q0 32 23 55t55 23h784q31 0 53.5 -23t22.5 -55v-51q0 -34 -22 -55t-54 -21h-647v-410h504q32 0 54.5 -22.5t22.5 -54.5v-52q0 -32 -22.5 -54.5t-54.5 -22.5h-504v-463h686q35 0 57.5 -21.5t22.5 -52.5v-55q0 -31 -22.5 -53.5t-57.5 -22.5h-823 q-32 0 -55 22.5t-23 53.5z" />
<glyph unicode="F" horiz-adv-x="1187" d="M205 76v1335q0 32 23 55t55 23h804q35 0 57.5 -22.5t22.5 -55.5v-51q0 -35 -22 -55.5t-58 -20.5h-667v-410h457q32 0 54.5 -22.5t22.5 -54.5v-52q0 -32 -22.5 -54.5t-54.5 -22.5h-457v-592q0 -31 -23 -53.5t-55 -22.5h-59q-32 0 -55 22.5t-23 53.5z" />
<glyph unicode="G" horiz-adv-x="1482" d="M133 739q0 163 44.5 304t124.5 243t197 160.5t255 58.5q205 0 351 -114t200 -299q9 -33 -1.5 -59.5t-39.5 -35.5l-68 -20q-31 -9 -59 4t-37 43q-88 279 -348 279q-126 0 -220 -76.5t-141 -203.5t-47 -284q0 -245 107 -399t292 -154q94 0 168.5 31.5t121.5 87t71.5 128.5 t25.5 159h-296q-32 0 -55 21t-23 53v55q0 32 22 54t53 22h435q31 0 52 -21t21 -53v-72q0 -315 -165.5 -491t-436.5 -176q-185 0 -323.5 99.5t-209.5 269.5t-71 386z" />
<glyph unicode="H" horiz-adv-x="1431" d="M205 76v1335q0 32 23 55t55 23h59q32 0 55 -23t23 -55v-567h592v567q0 32 22 55t53 23h62q32 0 55 -23t23 -55v-1335q0 -31 -23 -53.5t-55 -22.5h-62q-31 0 -53 22.5t-22 53.5v563h-592v-563q0 -31 -23 -53.5t-55 -22.5h-59q-32 0 -55 22.5t-23 53.5z" />
<glyph unicode="I" horiz-adv-x="743" d="M266 74v1339q0 32 22 54t54 22h59q32 0 54 -22t22 -54v-1339q0 -31 -22 -52.5t-54 -21.5h-57q-32 0 -55 21.5t-23 52.5z" />
<glyph unicode="J" horiz-adv-x="1105" d="M51 395v54q0 34 23.5 55.5t56.5 21.5h59q32 0 54 -21.5t22 -55.5v-54q0 -98 54.5 -152.5t156.5 -54.5q100 0 161.5 57.5t61.5 155.5v1010q0 32 22.5 55t53.5 23h58q32 0 54.5 -23t22.5 -55v-1008q0 -197 -119.5 -308t-314.5 -111q-199 0 -312.5 108.5t-113.5 302.5z" />
<glyph unicode="K" horiz-adv-x="1341" d="M205 76v1335q0 32 23 55t55 23h59q32 0 55 -23t23 -55v-602l575 643q37 37 80 37h92q43 1 57 -39q5 -13 5 -25q0 -25 -21 -47l-526 -567l584 -709q14 -17 14 -37q0 -15 -7 -29q-17 -36 -59 -36h-92q-51 0 -94 53l-491 598l-117 -123v-452q0 -31 -23 -53.5t-55 -22.5h-59 q-32 0 -55 22.5t-23 53.5z" />
<glyph unicode="L" horiz-adv-x="1150" d="M205 76v1335q0 32 22 55t54 23h61q31 0 53.5 -23t22.5 -55v-1206h637q32 0 53.5 -21.5t21.5 -52.5v-55q0 -31 -21.5 -53.5t-53.5 -22.5h-774q-32 0 -54 22.5t-22 53.5z" />
<glyph unicode="M" horiz-adv-x="1808" d="M205 76v1335q0 32 21.5 55t52.5 23h104q54 0 76 -49l444 -891l449 891q25 49 75 49h103q31 0 52.5 -23t21.5 -55v-1335q0 -31 -21.5 -53.5t-52.5 -22.5h-57q-32 0 -54 22.5t-22 53.5l2 1034l-375 -766q-8 -19 -27.5 -33t-42.5 -14h-100q-47 0 -70 47l-374 766l2 -1034 q0 -31 -22 -53.5t-54 -22.5h-57q-31 0 -52.5 22.5t-21.5 53.5z" />
<glyph unicode="N" horiz-adv-x="1480" d="M205 76v1335q0 32 23 55t55 23h86q55 0 80 -45l616 -1038v1005q0 32 22 55t54 23h57q32 0 55 -23t23 -55v-1335q0 -31 -23 -53.5t-55 -22.5h-76q-49 0 -78 51l-628 1063v-1038q0 -31 -22 -53.5t-54 -22.5h-57q-32 0 -55 22.5t-23 53.5z" />
<glyph unicode="O" horiz-adv-x="1488" d="M133 743q0 164 44 305t122.5 242t192.5 158t249 57q179 0 320 -99.5t218 -273t77 -389.5q0 -217 -78 -390t-219 -271t-318 -98q-181 0 -320 97.5t-213.5 269.5t-74.5 392zM346 743q0 -245 106 -400t289 -155t292.5 156t109.5 399q0 246 -110 403t-292 157 q-180 0 -287.5 -159t-107.5 -401z" />
<glyph unicode="P" horiz-adv-x="1366" d="M205 76v1335q0 32 23 55t55 23h512q225 0 357 -127t132 -336t-131.5 -334t-357.5 -125h-375v-491q0 -31 -22.5 -53.5t-53.5 -22.5h-61q-32 0 -55 22.5t-23 53.5zM420 772h373q130 0 202 66.5t72 187.5q0 119 -73 188.5t-201 69.5h-373v-512z" />
<glyph unicode="Q" horiz-adv-x="1472" d="M133 741q0 217 73.5 390.5t211 273.5t315.5 100q181 0 320 -101t212.5 -274t73.5 -389q0 -128 -37.5 -259.5t-95.5 -233.5l86 -82q21 -21 21 -53t-21 -54l-39 -39q-23 -23 -55 -22.5t-57 25.5l-72 69q-135 -108 -336 -108q-177 0 -314.5 99t-211.5 271t-74 387zM344 741 q0 -240 109.5 -396.5t279.5 -156.5q118 0 189 54l-70 71q-18 21 -18 51.5t18 51.5l39 39q19 19 51.5 20t54.5 -20l54 -52q77 133 77 338q0 244 -109.5 403t-285.5 159q-173 0 -281 -159t-108 -403z" />
<glyph unicode="R" horiz-adv-x="1419" d="M205 76v1335q0 32 23 55t55 23h497q212 0 343.5 -125.5t131.5 -323.5q0 -161 -94 -271.5t-233 -150.5l356 -520q13 -19 13 -38q-1 -14 -9 -28q-18 -32 -61 -32h-86q-56 0 -84 45l-361 551h-274v-520q0 -31 -23 -53.5t-55 -22.5h-61q-32 0 -55 22.5t-23 53.5zM422 803h344 q127 0 196.5 64.5t69.5 172.5q0 110 -68.5 177t-185.5 67h-356v-481z" />
<glyph unicode="S" horiz-adv-x="1396" d="M133 492q0 32 21 53.5t53 21.5h65q29 0 53 -22t27 -51q13 -148 106.5 -226t248.5 -78q149 0 240 66t91 172q0 81 -50.5 130.5t-166.5 76.5q-128 27 -256 65q-368 107 -368 385q0 131 67 227t179.5 143.5t254.5 47.5t254 -46.5t180.5 -140.5t73.5 -224q2 -31 -20.5 -51.5 t-57.5 -20.5h-59q-32 0 -54 20.5t-24 51.5q-7 105 -89 159t-208 54q-122 -1 -200 -61q-74 -58 -74 -145v-9q7 -132 219 -189q108 -30 240 -61q199 -46 292 -143.5t93 -268.5q0 -197 -157.5 -319.5t-401.5 -122.5q-166 0 -292 55.5t-201.5 171t-78.5 279.5z" />
<glyph unicode="T" horiz-adv-x="1208" d="M31 1360v51q0 33 21.5 55.5t53.5 22.5h994q32 0 55 -23t23 -55v-51q0 -34 -22.5 -55t-55.5 -21h-393v-1208q0 -31 -21 -53.5t-53 -22.5h-60q-32 0 -54.5 22.5t-22.5 53.5v1208h-390q-33 0 -54 20.5t-21 55.5z" />
<glyph unicode="U" horiz-adv-x="1476" d="M205 502v909q0 32 22.5 55t53.5 23h61q32 0 55 -23t23 -55v-913q0 -147 86 -229.5t233 -82.5q148 0 233 82.5t85 229.5v913q0 32 23 55t55 23h59q32 0 55 -23t23 -55v-909q0 -237 -146 -376.5t-387 -139.5q-245 0 -389.5 138t-144.5 378z" />
<glyph unicode="V" horiz-adv-x="1374" d="M98 1397q-4 13 -4 25q0 20 10 38q17 30 56 29h82q55 0 73 -57l375 -1094l369 1094q8 25 27 41t47 16h84q37 0 54 -28q10 -16 10 -36q0 -14 -5 -28l-469 -1344q-18 -53 -74 -53h-88q-56 0 -74 53z" />
<glyph unicode="W" horiz-adv-x="1802" d="M117 1407q-3 11 -3 22q0 21 12 37q18 24 56 23h80q26 0 45 -16t25 -43l237 -1016l207 1016q5 25 24.5 42t47.5 17h106q30 0 49.5 -16.5t24.5 -42.5l209 -1016l233 1016q6 27 25 43t47 16h80q36 -1 54 -25q13 -17 12 -37q0 -9 -2 -18l-332 -1354q-13 -55 -72 -55h-96 q-29 0 -50 16t-26 41l-209 1047l-209 -1047q-5 -24 -25 -40.5t-46 -16.5h-99q-58 0 -71 55z" />
<glyph unicode="X" horiz-adv-x="1404" d="M132 36q-8 16 -8 31q0 20 13 39l434 654l-413 622q-13 19 -13 39q1 15 7 31q16 38 53 37h96q48 0 76 -43l325 -498l326 498q28 43 76 43h96q38 -1 54 -37q7 -16 8 -30q0 -20 -13 -40l-415 -622l436 -656q11 -16 11 -35q-1 -17 -9 -33q-18 -36 -58 -36h-86q-50 0 -75 41 l-351 532l-350 -532q-25 -41 -76 -41h-86q-40 0 -58 36z" />
<glyph unicode="Y" horiz-adv-x="1269" d="M48 1458q17 31 58 31h87q47 0 71 -43l371 -676l371 676q22 43 71 43h86q37 0 56 -32q9 -16 9 -32t-9 -32l-480 -848v-469q0 -31 -22 -53.5t-51 -22.5h-60q-32 0 -55 22.5t-23 53.5v469l-475 848q-12 20 -12 38q0 14 7 27z" />
<glyph unicode="Z" horiz-adv-x="1267" d="M113 76v67q0 29 18 60l723 1081h-635q-33 0 -55.5 21t-22.5 55v51q0 32 23 55t55 23h828q32 0 54.5 -23t22.5 -55v-68q0 -35 -20 -63l-723 -1073h696q32 0 55 -21.5t23 -52.5v-57q0 -32 -23 -54t-55 -22h-891q-32 0 -52.5 22.5t-20.5 53.5z" />
<glyph unicode="[" horiz-adv-x="829" d="M184 -86v1663q0 31 21.5 52.5t52.5 21.5h434q31 0 53.5 -20.5t22.5 -53.5v-45q0 -33 -22.5 -53.5t-53.5 -20.5h-305v-1427h305q31 0 53.5 -20.5t22.5 -53.5v-43q0 -34 -22.5 -54t-53.5 -20h-434q-31 0 -52.5 21t-21.5 53z" />
<glyph unicode="\" d="M84.5 1411q7.5 25 32.5 39l45 27q26 15 51.5 9t40.5 -32l766 -1329q15 -26 8 -50.5t-33 -39.5l-47 -27q-24 -14 -49.5 -8.5t-40.5 31.5l-766 1329q-15 26 -7.5 51z" />
<glyph unicode="]" horiz-adv-x="829" d="M61 -43q0 33 22.5 53.5t53.5 20.5h305v1427h-305q-31 0 -53.5 20.5t-22.5 53.5v45q0 33 22.5 53.5t53.5 20.5h434q31 0 52.5 -21.5t21.5 -52.5v-1663q0 -32 -21.5 -53t-52.5 -21h-434q-31 0 -53.5 20t-22.5 54v43z" />
<glyph unicode="^" horiz-adv-x="1103" d="M123 1061.5q0 32.5 22 54.5l353 350q25 23 54 23t54 -23l352 -350q22 -22 22 -54.5t-22 -55.5l-34 -35q-21 -22 -53 -23.5t-56 21.5l-264 264l-262 -264q-24 -23 -56 -21.5t-53 23.5l-35 35q-22 23 -22 55.5z" />
<glyph unicode="_" horiz-adv-x="1048" d="M102 -74q0 31 21.5 52.5t52.5 21.5h698q29 0 50.5 -21.5t21.5 -52.5v-47q0 -31 -21.5 -52.5t-50.5 -21.5h-698q-31 0 -52.5 21.5t-21.5 52.5v47z" />
<glyph unicode="`" horiz-adv-x="819" d="M202 1403q8 20 34 20h124q50 0 66 -41l90 -225q7 -16 -1.5 -31.5t-29.5 -15.5h-69q-38 0 -64 33l-145 223q-13 17 -5 37z" />
<glyph unicode="a" horiz-adv-x="1097" d="M98 295q0 142 96 217.5t255 75.5q55 0 157 4q104 4 131 49v10v6q0 87 -52 140q-54 55 -157 55q-92 0 -144 -36t-65 -99q-13 -62 -81 -62h-62q-30 0 -48.5 19.5t-12.5 50.5q25 143 137.5 227t273.5 84q180 0 295 -111t115 -288v-401q0 -19 12 -30t31 -11q30 0 49 -19 t19 -49v-57q0 -32 -20.5 -51t-53.5 -19h-41q-47 0 -96 28t-64 62q-33 -43 -91 -70t-120 -30q-47 -3 -80 -3q-17 0 -30 1q-163 8 -258 87.5t-95 219.5zM303 297q0 -51 39 -82t109 -37q32 -3 62.5 -3t59.5 3q71 8 114 40.5t50 84.5v156q-38 -33 -129 -41q-82 -6 -164 -6 q-65 0 -103 -30.5t-38 -84.5z" />
<glyph unicode="b" horiz-adv-x="1165" d="M164 74v1341q0 31 20.5 52.5t51.5 21.5h53q32 0 54 -21.5t22 -52.5v-471q115 92 237 92q211 0 336 -148q123 -145 123 -369v-7q-2 -231 -127 -380q-124 -148 -331 -148h-3q-120 0 -238 102l-2 -14q-5 -32 -23.5 -52t-49.5 -20h-51q-31 0 -51.5 21.5t-20.5 52.5zM365 324 q41 -62 101 -105t132 -43q121 0 190.5 94t69.5 240q0 139 -72.5 237.5t-187.5 98.5q-72 0 -132.5 -39t-100.5 -96v-387z" />
<glyph unicode="c" horiz-adv-x="1097" d="M102 510q0 148 56 267t163 189t246 70q156 0 261 -76.5t149 -207.5q10 -28 -0.5 -52t-42.5 -34l-55 -19q-31 -9 -57 1t-36 40q-28 75 -84.5 118t-134.5 44h-2q-119 0 -191 -96q-72 -97 -73 -244q-1 -145 73 -241q73 -95 194 -95h3q82 2 143.5 45.5t84.5 116.5 q7 27 28.5 42t51.5 15h63q32 0 50 -23q12 -16 12 -36q0 -9 -3 -19q-34 -143 -156 -237t-282 -94q-213 0 -337 148t-124 378z" />
<glyph unicode="d" horiz-adv-x="1163" d="M102 512q0 229 125 376.5t336 147.5q64 0 127 -25.5t109 -66.5v471q0 31 21.5 52.5t53.5 21.5h54q30 0 50.5 -21.5t20.5 -52.5v-1341q0 -31 -20.5 -52.5t-50.5 -21.5h-51q-31 0 -50 19t-24 51l-2 16q-118 -102 -246 -102q-139 0 -243 68.5t-157 187.5t-53 272zM305 510 q0 -146 69.5 -240t190.5 -94q73 0 134.5 43t99.5 105v387q-40 59 -100.5 97t-133.5 38q-116 0 -188 -96t-72 -240z" />
<glyph unicode="e" horiz-adv-x="1118" d="M102 518q0 143 55.5 260t163.5 187.5t250 70.5q188 0 309 -123.5t126 -302.5v-65q0 -36 -21 -56t-55 -20h-625v-7q0 -124 74 -206q76 -86 194 -86q77 0 135 33t87 96q24 51 79 51h62q38 0 54 -26q9 -15 9 -33q0 -14 -6 -31q-50 -129 -161 -202.5t-259 -73.5 q-220 0 -345.5 149.5t-125.5 384.5zM317 643h482q-2 89 -67 151t-163 62q-100 0 -168.5 -64t-83.5 -149z" />
<glyph unicode="f" horiz-adv-x="714" d="M61 901v45q0 31 21.5 52.5t54.5 21.5h109v221q0 107 73.5 177.5t190.5 70.5h76q31 0 52 -20t21 -52v-45q0 -32 -21 -52t-52 -20h-76q-32 0 -50 -17.5t-18 -47.5v-215h160q32 0 52 -21.5t20 -52.5v-47q0 -29 -21.5 -49.5t-50.5 -20.5h-160v-755q0 -31 -19.5 -52.5 t-49.5 -21.5h-56q-29 0 -50 21.5t-21 52.5v755h-109q-33 0 -54.5 20t-21.5 52z" />
<glyph unicode="g" horiz-adv-x="1161" d="M102 514q0 234 126 380q124 142 320 142h11q134 -3 242 -104l2 16q0 31 21.5 51.5t52.5 20.5h47q32 0 52.5 -21.5t20.5 -52.5v-899q0 -196 -124 -316t-334 -120q-172 0 -280.5 84.5t-117.5 220.5q-1 29 18 48.5t50 19.5h57q66 0 80 -68q11 -54 61.5 -90.5t131.5 -36.5 q114 0 186 60t72 167v66q-50 -42 -114 -69t-128 -27q-207 0 -330 147.5t-123 380.5zM303 514q0 -141 70.5 -239.5t187.5 -98.5q78 0 139 37t97 96v393q-39 61 -101.5 102.5t-134.5 41.5q-119 0 -188.5 -93t-69.5 -239z" />
<glyph unicode="h" horiz-adv-x="1187" d="M164 74v1341q0 31 21.5 52.5t52.5 21.5h55q32 0 52 -21.5t20 -52.5v-500q47 50 122 85.5t148 35.5q186 0 287.5 -106t101.5 -291v-565q0 -31 -21.5 -52.5t-52.5 -21.5h-53q-31 0 -52.5 21.5t-21.5 52.5v563q0 100 -57.5 157.5t-159.5 57.5q-83 0 -151 -57t-90 -129v-592 q0 -31 -22 -52.5t-54 -21.5h-53q-31 0 -51.5 21.5t-20.5 52.5z" />
<glyph unicode="i" horiz-adv-x="614" d="M174 1327q0 58 38 96.5t95 38.5t96 -38.5t39 -96.5t-38.5 -95.5t-96.5 -37.5q-57 0 -95 37.5t-38 95.5zM209 74v872q0 31 20.5 52.5t51.5 21.5h53q33 0 52.5 -21t19.5 -53v-872q0 -31 -21.5 -52.5t-52.5 -21.5h-51q-31 0 -51.5 21.5t-20.5 52.5z" />
<glyph unicode="j" horiz-adv-x="563" d="M10 -256q0 30 21.5 50t52.5 20h57q27 0 45.5 17t18.5 44v1071q0 31 20.5 52.5t50.5 21.5h52q29 0 50 -21.5t21 -52.5v-1069q0 -115 -72 -182.5t-186 -67.5h-57q-31 0 -52.5 20t-21.5 50v47zM168 1327q0 58 38 96.5t95 38.5t96 -38.5t39 -96.5t-38.5 -95.5t-96.5 -37.5 q-57 0 -95 37.5t-38 95.5z" />
<glyph unicode="k" horiz-adv-x="1089" d="M164 74v1341q0 31 20 52.5t49 21.5h56q31 0 52 -21.5t21 -52.5v-829l418 405q29 29 76 29h82q38 0 53 -40q5 -13 5 -25q0 -23 -19 -40l-375 -346l391 -469q15 -17 15 -38q0 -12 -6 -26q-14 -36 -54 -36h-90q-45 0 -82 43l-319 389l-95 -88v-270q0 -31 -21 -52.5 t-52 -21.5h-56q-29 0 -49 21.5t-20 52.5z" />
<glyph unicode="l" horiz-adv-x="598" d="M164 240v1177q0 31 21.5 51.5t52.5 20.5h55q30 0 51 -21t21 -51v-1167q0 -25 17 -41t44 -16h57q33 0 53.5 -19.5t20.5 -50.5v-51q0 -32 -20 -52t-54 -20h-77q-105 0 -173.5 68.5t-68.5 171.5z" />
<glyph unicode="m" horiz-adv-x="1593" d="M164 74v872q0 31 21.5 52.5t52.5 21.5h53q28 0 46 -19t23 -51l2 -14q35 38 92.5 69t116.5 31q168 0 252 -104q119 104 258 104q156 0 252.5 -88.5t96.5 -240.5v-633q0 -31 -21.5 -52.5t-52.5 -21.5h-56q-29 0 -50 21.5t-21 52.5v631q0 65 -43 104t-117 39q-54 0 -107 -43 t-65 -98v-633q0 -31 -21.5 -52.5t-52.5 -21.5h-47q-31 0 -52.5 21.5t-21.5 52.5v631q0 63 -45 103t-116 40q-68 0 -116.5 -46.5t-59.5 -109.5v-618q0 -31 -21.5 -52.5t-52.5 -21.5h-53q-31 0 -52.5 21.5t-21.5 52.5z" />
<glyph unicode="n" horiz-adv-x="1187" d="M164 74v872q0 31 20.5 52.5t51.5 21.5h53q32 0 51.5 -20.5t21.5 -51.5l3 -28q47 50 119 83t145 33h3q181 0 286 -108q106 -110 106 -297v-557q0 -31 -21.5 -52.5t-52.5 -21.5h-53q-31 0 -52.5 21.5t-21.5 52.5v561q0 102 -58.5 158.5t-160.5 56.5q-80 0 -148.5 -57.5 t-90.5 -128.5v-590q0 -31 -22 -52.5t-54 -21.5h-53q-31 0 -51.5 21.5t-20.5 52.5z" />
<glyph unicode="o" horiz-adv-x="1138" d="M102 512q0 225 135 374.5t332 149.5t332 -149.5t135 -374.5q0 -229 -133.5 -378.5t-333.5 -149.5t-333.5 149.5t-133.5 378.5zM301 512q0 -149 75.5 -243.5t192.5 -94.5q118 0 193.5 94t75.5 244q0 145 -76 241.5t-193 96.5q-116 0 -192 -96.5t-76 -241.5z" />
<glyph unicode="p" horiz-adv-x="1165" d="M164 -299v1245q0 31 20.5 52.5t51.5 21.5h53q32 0 50 -19.5t21 -50.5l2 -16q118 102 244 102h3q207 0 328 -146q122 -148 124 -380v-5q0 -148 -54 -265q-55 -118 -161 -187t-246 -69q-63 0 -129.5 29.5t-105.5 68.5v-381q0 -31 -21 -52.5t-53 -21.5h-55q-31 0 -51.5 21.5 t-20.5 52.5zM365 309q39 -57 100.5 -96t132.5 -39q124 0 194 94q66 91 66 232v12q-3 147 -71 239.5t-189 92.5q-72 0 -132 -43t-101 -105v-387z" />
<glyph unicode="q" horiz-adv-x="1165" d="M104 510q2 232 124 380q121 146 328 146h3q126 0 244 -102l2 16q3 31 21.5 50.5t50.5 19.5h53q30 0 50.5 -21.5t20.5 -52.5v-1245q0 -31 -20.5 -52.5t-50.5 -21.5h-56q-32 0 -52.5 21.5t-20.5 52.5v381q-39 -39 -106 -68.5t-130 -29.5q-140 0 -246 69t-161 187 q-54 117 -54 265v5zM307 512v-12q0 -141 67 -232q69 -94 193 -94q71 0 133 39t101 96v387q-41 62 -101.5 105t-132.5 43q-121 0 -189 -92.5t-71 -239.5z" />
<glyph unicode="r" horiz-adv-x="749" d="M164 74v872q0 31 21.5 52.5t52.5 21.5h53q31 0 49.5 -20t21.5 -52l3 -47q40 56 110.5 95.5t138.5 39.5h37q32 0 52 -18t20 -49v-56q0 -32 -21.5 -52.5t-54.5 -20.5h-37q-83 0 -148 -44.5t-97 -107.5v-614q0 -32 -20 -53t-54 -21h-53q-31 0 -52.5 21.5t-21.5 52.5z" />
<glyph unicode="s" horiz-adv-x="1021" d="M104 309v5q0 26 18 44q20 20 48 21h59q30 0 51.5 -20t24.5 -50q5 -60 63 -101t148 -42h5q99 0 154 36q56 36 56 97q0 40 -26.5 66t-69.5 34q-137 25 -258 62q-102 30 -169 96.5t-67 173.5q0 135 104.5 220t268.5 85q157 0 258 -78t119 -202q4 -31 -15 -50.5t-51 -19.5 h-57q-27 0 -50 17t-30 45q-10 42 -57 76t-119 34q-82 0 -126 -36t-44 -89q0 -34 26.5 -59.5t67.5 -36.5q101 -27 244 -53q115 -23 182.5 -94t67.5 -187q0 -137 -112.5 -228t-303.5 -91q-184 0 -294.5 90.5t-115.5 234.5z" />
<glyph unicode="t" horiz-adv-x="737" d="M41 901v45q0 31 22 52.5t54 21.5h116v299q0 32 20.5 54t49.5 22h57q29 0 49.5 -22t20.5 -54v-299h152q31 0 52 -21.5t21 -52.5v-45q0 -29 -21.5 -50.5t-51.5 -21.5h-152v-581q0 -27 17.5 -44.5t44.5 -17.5h88q31 0 52 -19.5t21 -49.5v-43q0 -33 -21 -53.5t-52 -20.5h-111 q-97 0 -166.5 66.5t-69.5 166.5v596h-116q-32 0 -54 21t-22 51z" />
<glyph unicode="u" horiz-adv-x="1181" d="M164 391v555q0 31 20 52.5t52 21.5h59q33 0 51.5 -21t18.5 -53v-553q0 -102 57.5 -162.5t157.5 -60.5q78 0 146 53.5t91 120.5v602q0 31 20.5 52.5t53.5 21.5h57q32 0 51 -21t19 -53v-872q0 -31 -21.5 -52.5t-50.5 -21.5h-51q-30 0 -49.5 20t-22.5 52l-2 24 q-45 -49 -119 -80.5t-141 -31.5q-183 0 -290 110.5t-107 296.5z" />
<glyph unicode="v" horiz-adv-x="1052" d="M49 934q-7 15 -7 29q0 17 10 31q18 26 57 26h71q55 0 74 -49l283 -680l264 682q7 21 27 34t44 13h76q38 0 55 -26q9 -14 9 -30q0 -14 -6 -30l-361 -889q-17 -45 -67 -45h-78q-20 0 -38.5 12.5t-27.5 32.5z" />
<glyph unicode="w" horiz-adv-x="1447" d="M76 934q-3 11 -3 21q0 21 12 39q18 26 54 26h68q51 0 67 -49l183 -637l151 633q14 53 66 53h98q55 0 68 -51l157 -635l174 637q12 49 70 49h66q37 0 55 -26q12 -18 13 -39q0 -10 -3 -21l-272 -885q-13 -49 -68 -49h-71q-58 0 -70 49l-168 660q-10 -59 -162 -658 q-13 -51 -69 -51h-72q-53 0 -68 49z" />
<glyph unicode="x" horiz-adv-x="1007" d="M69 30q-7 13 -7 26q0 17 12 34l311 424l-301 410q-14 18 -14 37q0 13 7 27q16 32 56 32h82q41 0 64 -33l225 -313l225 313q23 33 64 33h84q39 0 54 -32q6 -13 6 -27q0 -19 -13 -37l-299 -410l309 -424q12 -16 12 -33q0 -13 -7 -27q-17 -30 -54 -30h-84q-42 0 -68 33 l-229 321l-230 -321q-26 -33 -67 -33h-80q-41 0 -58 30z" />
<glyph unicode="y" horiz-adv-x="1050" d="M59 930q-7 17 -7 32q0 17 10 32q17 26 59 26h78q51 0 67 -43l275 -666l280 668q18 41 66 41h76q41 0 57 -27q9 -14 9 -31q0 -15 -7 -32l-508 -1155q-69 -158 -238 -158q-60 0 -112 16q-46 15 -46 60q0 11 3 24l12 50q7 29 34 42t58 5q24 -7 47 -7q48 0 64 39l98 238z" />
<glyph unicode="z" horiz-adv-x="987" d="M72 74v57q0 31 22 59l535 639h-473q-29 0 -49.5 21.5t-20.5 50.5v45q0 31 20.5 52.5t49.5 21.5h675q29 0 49.5 -21.5t20.5 -52.5v-55q0 -37 -20 -60l-539 -641h502q30 0 50.5 -20.5t20.5 -50.5v-45q0 -31 -20.5 -52.5t-50.5 -21.5h-699q-29 0 -51 22t-22 52z" />
<glyph unicode="{" horiz-adv-x="901" d="M113 719v53q0 32 22.5 54t52.5 22h27q42 0 66 22.5t24 63.5v409q0 134 92.5 222t229.5 88h159q31 0 52.5 -21t21.5 -53v-47q0 -31 -21.5 -52.5t-52.5 -21.5h-157q-48 0 -83.5 -33.5t-35.5 -83.5v-391q0 -140 -133 -205q133 -65 133 -204v-387q0 -50 35.5 -83.5 t83.5 -33.5h157q31 0 52.5 -21.5t21.5 -52.5v-47q0 -32 -21.5 -53t-52.5 -21h-159q-137 0 -229.5 88t-92.5 222v405q0 41 -24 63.5t-66 22.5h-27q-30 0 -52.5 22t-22.5 54z" />
<glyph unicode="|" horiz-adv-x="628" d="M215 -317v1732q0 31 22 52.5t54 21.5h49q31 0 52.5 -21.5t21.5 -52.5v-1732q0 -31 -21.5 -51.5t-52.5 -20.5h-49q-32 0 -54 20.5t-22 51.5z" />
<glyph unicode="}" horiz-adv-x="901" d="M41 -37q0 31 21.5 52.5t52.5 21.5h157q48 0 83.5 33.5t35.5 83.5v387q0 139 133 204q-133 65 -133 205v391q0 50 -35.5 83.5t-83.5 33.5h-157q-31 0 -52.5 21.5t-21.5 52.5v47q0 32 21.5 53t52.5 21h159q137 0 229.5 -88t92.5 -222v-409q0 -41 24 -63.5t66 -22.5h27 q30 0 52.5 -22t22.5 -54v-53q0 -32 -22.5 -54t-52.5 -22h-27q-42 0 -66 -22.5t-24 -63.5v-405q0 -134 -92.5 -222t-229.5 -88h-159q-31 0 -52.5 21t-21.5 53v47z" />
<glyph unicode="~" horiz-adv-x="1048" d="M131 434q0 102 71.5 166t180.5 64q95 0 192 -70q56 -41 89 -41q47 0 53 43q5 32 27 53t53 21h49q31 0 51.5 -21.5t20.5 -52.5q0 -102 -71.5 -165.5t-180.5 -63.5q-97 0 -193 69q-56 41 -88 41q-47 0 -53 -43q-5 -32 -27 -53t-53 -21h-49q-31 0 -51.5 21.5t-20.5 52.5z " />
<glyph unicode="&#xa1;" horiz-adv-x="581" d="M143 1341q0 64 43 106t105 42t104.5 -42t42.5 -106t-42.5 -105.5t-104.5 -41.5t-105 41.5t-43 105.5zM184 74l9 917q0 32 21.5 54t53.5 22h49q31 0 52.5 -22t21.5 -54l8 -917q0 -31 -21 -52.5t-52 -21.5h-66q-32 0 -54 21.5t-22 52.5z" />
<glyph unicode="&#xa2;" horiz-adv-x="1107" d="M102 510q0 194 98.5 336t264.5 178v281q0 32 22 53.5t54 21.5h51q31 0 53.5 -21.5t22.5 -53.5v-281q118 -23 199.5 -95.5t119.5 -180.5q10 -28 -0.5 -52t-42.5 -34l-55 -19q-30 -9 -56 1.5t-36 39.5q-36 96 -129 143v-632q105 40 141 145q15 57 80 57h63q32 0 49.5 -23 t10.5 -55q-29 -120 -122.5 -207.5t-221.5 -115.5v-291q0 -32 -22.5 -55t-53.5 -23h-51q-32 0 -54 23t-22 55v291q-168 35 -265.5 175t-97.5 339zM305 510q0 -114 42 -196t118 -117v632q-77 -35 -118.5 -118.5t-41.5 -200.5z" />
<glyph unicode="&#xa3;" horiz-adv-x="1312" d="M205 76v53q0 29 23.5 51.5t54.5 22.5h82v411h-82q-31 0 -54.5 23t-23.5 55v47q0 32 23.5 55t54.5 23h82v291q0 185 116 291t303 106q188 0 301 -106t113 -293v-92q0 -32 -22 -55t-54 -23h-59q-31 0 -53.5 23t-22.5 55v92q0 93 -52.5 147t-148.5 54q-99 0 -155 -53.5 t-56 -145.5v-291h226q32 0 54 -23t22 -55v-47q0 -32 -22 -55t-54 -23h-226v-411h560q32 0 53.5 -22t21.5 -52v-53q0 -31 -21.5 -53.5t-53.5 -22.5h-852q-31 0 -54.5 22.5t-23.5 53.5z" />
<glyph unicode="&#xa4;" horiz-adv-x="1341" d="M200.5 1026q-0.5 29 22.5 53l37 37q23 23 52.5 22t52.5 -24l73 -72q112 70 236 70q122 0 231 -68l72 72q22 22 52 22t52 -22l39 -39q22 -24 20.5 -51t-24.5 -51l-69 -72q69 -112 69 -233q0 -128 -67 -238l69 -70q22 -22 22.5 -51t-22.5 -53l-37 -37q-24 -23 -53.5 -22 t-50.5 22l-70 70q-115 -66 -233 -66q-122 0 -236 68l-73 -72q-22 -22 -50.5 -23.5t-52.5 21.5l-39 39q-22 22 -22 53t22 51l74 72q-68 114 -68 236q0 120 68 231l-74 74q-22 22 -22.5 51zM422 666q0 -106 71.5 -176t176.5 -70t177.5 70t72.5 176t-72.5 176.5t-177.5 70.5 t-176.5 -70.5t-71.5 -176.5z" />
<glyph unicode="&#xa5;" horiz-adv-x="1339" d="M125 692v47q0 32 23.5 55t54.5 23h246l-314 576q-21 35 -4.5 65.5t57.5 30.5h86q48 0 72 -43l324 -635l325 635q22 43 72 43h84q37 0 55.5 -32t-0.5 -64l-313 -576h246q32 0 53.5 -22.5t21.5 -55.5v-47q0 -33 -21.5 -55.5t-53.5 -22.5h-365v-538q0 -31 -22.5 -53.5 t-51.5 -22.5h-59q-32 0 -55 22.5t-23 53.5v538h-360q-31 0 -54.5 23t-23.5 55z" />
<glyph unicode="&#xa6;" horiz-adv-x="632" d="M215 -301v666q0 29 22 50t54 21h53q31 0 52.5 -21t21.5 -50v-666q0 -31 -21.5 -51.5t-52.5 -20.5h-53q-32 0 -54 20.5t-22 51.5zM215 754v661q0 31 22 52.5t54 21.5h53q31 0 52.5 -21.5t21.5 -52.5v-661q0 -32 -21.5 -54t-52.5 -22h-53q-32 0 -54 22t-22 54z" />
<glyph unicode="&#xa7;" horiz-adv-x="1290" d="M174 84q0 31 22 52.5t54 21.5h59q30 0 52 -22t22 -52q2 -111 73.5 -177.5t190.5 -66.5q121 0 189.5 63t66.5 165q-3 120 -186 196l-205 82q-45 18 -77 33t-73 39t-69 52.5t-53 66t-37.5 87.5t-12.5 109q0 72 34.5 139.5t88.5 112.5q-112 112 -112 252q-1 187 129.5 300.5 t316.5 113.5q205 0 335 -114t130 -312q0 -31 -22 -52.5t-54 -21.5h-59q-30 0 -52 22t-22 52q-2 111 -69.5 174t-186.5 63q-108 0 -172.5 -63t-62.5 -164q3 -123 182 -197q39 -16 108 -47t82 -37q40 -17 65 -28t63.5 -32t63 -40.5t53 -49.5t44.5 -62.5t26.5 -77t10.5 -95.5 q-3 -136 -115 -245q116 -113 119 -258q1 -187 -135.5 -300.5t-331.5 -113.5q-134 0 -240.5 51t-169.5 150t-63 231zM395 752q0 -83 48.5 -135.5t142.5 -86.5q168 -64 205 -81l59 -29q25 25 40 63.5t15 65.5q0 82 -49 133t-145 90q-64 26 -191 82q-48 21 -65 31 q-26 -23 -43 -63.5t-17 -69.5z" />
<glyph unicode="&#xa8;" horiz-adv-x="1024" d="M182 1266q0 51 38 88t89 37q50 0 88.5 -37.5t38.5 -87.5q0 -49 -38.5 -87t-88.5 -38q-51 0 -89 37.5t-38 87.5zM586 1266q0 51 38 88t89 37q50 0 88.5 -37.5t38.5 -87.5q0 -49 -38.5 -87t-88.5 -38q-51 0 -89 37.5t-38 87.5z" />
<glyph unicode="&#xa9;" horiz-adv-x="1648" d="M61 745q0 155 60.5 296t163 242.5t243.5 161.5t297 60q209 0 384 -101.5t276.5 -276t101.5 -382.5q0 -156 -60 -296.5t-161.5 -242.5t-243 -162t-297.5 -60q-208 0 -383.5 101.5t-278 277t-102.5 382.5zM227 745q0 -169 80.5 -308.5t217.5 -218.5t300 -79q165 0 302.5 79 t217.5 218.5t80 308.5q0 168 -80 307.5t-217.5 219.5t-302.5 80q-122 0 -232.5 -47t-190.5 -127.5t-127.5 -193.5t-47.5 -239zM426 750q0 195 111.5 325.5t296.5 130.5q125 0 217.5 -67t144.5 -187q11 -23 2 -46t-33 -32l-57 -20q-24 -9 -44.5 0t-31.5 33q-64 147 -201 147 q-107 0 -165 -79t-58 -205q0 -125 60 -204t161 -79q73 0 128 37t81 106q15 43 64 43h61q29 0 43 -20.5t8 -46.5q-43 -134 -143 -213.5t-242 -79.5q-179 0 -291 131t-112 326z" />
<glyph unicode="&#xaa;" horiz-adv-x="962" d="M121 911q0 119 71.5 175.5t200.5 58.5l119 2q87 0 106 31v8q0 68 -40.5 106.5t-114.5 38.5q-62 0 -102 -26.5t-50 -65.5q-13 -55 -71 -55h-50q-29 0 -46 20.5t-11 46.5q28 111 115 174.5t221 63.5q151 0 237.5 -88t86.5 -230v-290q0 -14 9.5 -22.5t20.5 -8.5 q25 0 41.5 -14.5t16.5 -40.5v-60q0 -28 -18.5 -42.5t-45.5 -14.5h-29q-45 0 -81 20.5t-52 49.5q-24 -29 -72.5 -50t-93.5 -24q-51 -3 -100 0q-108 5 -188 65t-80 172zM297 918q0 -32 26.5 -53.5t69.5 -22.5q54 -2 101 0q64 4 94 36.5t30 75.5v70q-29 -31 -114 -35l-117 -2 q-90 -3 -90 -69z" />
<glyph unicode="&#xab;" horiz-adv-x="1191" d="M94 579q1 30 23 52l375 373q22 20 50 20t50 -20l39 -37q22 -22 21 -50.5t-23 -48.5l-310 -290l310 -289q22 -20 23 -48.5t-21 -50.5l-39 -38q-22 -20 -50 -20t-50 20l-375 372q-24 25 -23 55zM540 579q1 30 23 52l375 373q22 20 50 20t50 -20l39 -37q22 -22 21 -50.5 t-23 -48.5l-309 -290l309 -291q22 -20 23 -48.5t-21 -50.5l-39 -36q-22 -20 -50 -20t-50 20l-375 372q-24 25 -23 55z" />
<glyph unicode="&#xac;" horiz-adv-x="1048" d="M92 494v53q0 31 21 52.5t53 21.5h700q31 0 51.5 -21.5t20.5 -52.5v-400q0 -31 -20.5 -52t-51.5 -21h-55q-31 0 -53.5 20.5t-22.5 52.5v273h-569q-31 0 -52.5 21.5t-21.5 52.5z" />
<glyph unicode="&#xad;" horiz-adv-x="815" d="M123 492v49q0 31 21.5 52t52.5 21h421q31 0 52.5 -21t21.5 -52v-49q0 -31 -21.5 -52.5t-52.5 -21.5h-421q-31 0 -52.5 21.5t-21.5 52.5z" />
<glyph unicode="&#xae;" horiz-adv-x="1648" d="M61 745q0 155 60.5 296t163 242.5t243.5 161.5t297 60q209 0 384 -101.5t276.5 -276t101.5 -382.5q0 -156 -60 -296.5t-161.5 -242.5t-243 -162t-297.5 -60q-208 0 -383.5 101.5t-278 277t-102.5 382.5zM227 745q0 -169 80.5 -308.5t217.5 -218.5t300 -79q165 0 302.5 79 t217.5 218.5t80 308.5q0 168 -80 307.5t-217.5 219.5t-302.5 80q-122 0 -232.5 -47t-190.5 -127.5t-127.5 -193.5t-47.5 -239zM512 381v758q0 25 16 42t39 17h305q135 0 224.5 -81t89.5 -212q0 -92 -49.5 -159.5t-128.5 -98.5l159 -250q19 -25 5.5 -52.5t-50.5 -27.5h-71 q-21 0 -39 11.5t-27 25.5l-156 262h-145v-235q0 -29 -15.5 -46.5t-43.5 -17.5h-56q-24 0 -40.5 17.5t-16.5 46.5zM684 784h186q61 0 99.5 33t38.5 88q0 59 -39 93t-99 34h-186v-248z" />
<glyph unicode="&#xaf;" horiz-adv-x="1024" d="M219 1223v57q0 25 14.5 39t40.5 14h461q26 0 41 -14t15 -39v-57q0 -26 -15.5 -41t-40.5 -15h-461q-26 0 -40.5 15t-14.5 41z" />
<glyph unicode="&#xb0;" horiz-adv-x="827" d="M133 1210q0 120 81.5 199.5t199.5 79.5t199 -79.5t81 -199.5t-81 -200t-199 -80t-199.5 80t-81.5 200zM293 1208q0 -54 34.5 -88.5t86.5 -34.5t86.5 34.5t34.5 88.5t-34.5 88.5t-86.5 34.5t-86.5 -34.5t-34.5 -88.5z" />
<glyph unicode="&#xb1;" horiz-adv-x="1048" d="M102 74v47q0 31 21.5 52.5t52.5 21.5h698q29 0 50.5 -21.5t21.5 -52.5v-47q0 -31 -21.5 -52.5t-50.5 -21.5h-698q-31 0 -52.5 21.5t-21.5 52.5zM102 688v47q0 31 21.5 52.5t52.5 21.5h250v248q0 31 21.5 52t52.5 21h49q32 0 54 -21t22 -52v-248h249q29 0 50.5 -21.5 t21.5 -52.5v-47q0 -31 -21.5 -52.5t-50.5 -21.5h-249v-249q0 -30 -22 -52t-54 -22h-49q-30 0 -52 22t-22 52v249h-250q-31 0 -52.5 21.5t-21.5 52.5z" />
<glyph unicode="&#xb2;" horiz-adv-x="890" d="M135 745v78q0 40 37 66l299 203q55 37 78.5 67t23.5 74q0 41 -32.5 69.5t-89.5 28.5t-93 -29t-39 -69q-7 -64 -65 -64h-55q-27 0 -45.5 18.5t-18.5 45.5q0 108 92.5 182t223.5 74q129 0 216 -71.5t87 -184.5q0 -85 -49 -147.5t-136 -116.5l-211 -119h349q28 0 45.5 -18.5 t17.5 -45.5v-41q0 -29 -18 -46t-45 -17h-508q-27 0 -45.5 17.5t-18.5 45.5z" />
<glyph unicode="&#xb3;" horiz-adv-x="890" d="M102 918q-3 28 14 45.5t44 17.5h61q57 0 72 -57q9 -32 50.5 -57t107.5 -25q73 0 116 25t43 69q0 84 -127 84h-30q-26 0 -44 17.5t-18 43.5v47q0 25 18 42.5t44 17.5h30q43 0 69.5 19t25.5 48q-2 37 -38.5 59.5t-97.5 22.5q-56 0 -93 -23.5t-40 -56.5q-3 -29 -22.5 -46 t-46.5 -17h-52q-27 0 -44.5 17.5t-16.5 45.5q4 103 93.5 167.5t219.5 64.5q136 0 229 -63t93 -171q0 -40 -24 -81.5t-60 -61.5q50 -25 83.5 -72t33.5 -104q0 -83 -47.5 -141.5t-125 -85.5t-176.5 -27q-136 0 -235.5 68.5t-108.5 167.5z" />
<glyph unicode="&#xb4;" horiz-adv-x="819" d="M308 1127q-8 17 1 32l109 223q20 41 67 41h119q31 0 38.5 -23.5t-7.5 -37.5l-158 -215q-29 -37 -69 -37h-70q-22 0 -30 17z" />
<glyph unicode="&#xb6;" horiz-adv-x="1290" d="M41 1034q0 204 130 329.5t355 125.5h443q34 0 53.5 -20t19.5 -54v-1550q0 -22 13.5 -34.5t34.5 -12.5h65q32 0 50 -18t18 -48v-53q0 -33 -19.5 -52.5t-54.5 -19.5h-86q-100 0 -162.5 59t-62.5 160v1448h-164v-1595q0 -31 -21.5 -51.5t-52.5 -20.5h-57q-31 0 -51.5 20.5 t-20.5 51.5v879q-196 17 -313 141t-117 315z" />
<glyph unicode="&#xb7;" horiz-adv-x="499" d="M102 614q0 64 43 106t105 42t104.5 -42t42.5 -106t-42.5 -105.5t-104.5 -41.5t-105 41.5t-43 105.5z" />
<glyph unicode="&#xb8;" horiz-adv-x="1024" d="M252 -219q0 31 19 49t51 18h51q28 0 44.5 15t16.5 41v125q0 32 17.5 50.5t48.5 18.5h47q30 0 46.5 -18t16.5 -49v-129q0 -104 -68 -167t-171 -63h-49q-32 0 -51 18t-19 50v41z" />
<glyph unicode="&#xb9;" horiz-adv-x="890" d="M125 1211.5q6 21.5 29 37.5q132 98 215 199q33 41 67 41h56q26 0 43.5 -16.5t17.5 -42.5v-580h166q28 0 45.5 -18.5t17.5 -45.5v-41q0 -29 -18 -46t-45 -17h-516q-27 0 -45.5 17.5t-18.5 45.5v41q0 27 17.5 45.5t46.5 18.5h172v385q-3 -4 -25 -29.5t-33.5 -38t-32 -31 t-36.5 -28.5q-25 -14 -48.5 -9.5t-35.5 23.5l-31 43q-14 25 -8 46.5z" />
<glyph unicode="&#xba;" horiz-adv-x="962" d="M111 1087q0 183 107.5 292.5t262.5 109.5q73 0 139.5 -28t118 -78t82.5 -127t31 -169q0 -188 -106.5 -296.5t-264.5 -108.5q-160 0 -265 108t-105 297zM287 1090q0 -108 53.5 -173t140.5 -65t139 64t52 174q0 103 -53 168t-138 65q-83 0 -138.5 -66t-55.5 -167z" />
<glyph unicode="&#xbb;" horiz-adv-x="1191" d="M94 238.5q1 28.5 23 48.5l309 291l-309 290q-22 20 -23 48.5t21 50.5l39 37q22 20 50 20t50 -20l375 -373q22 -22 23 -52t-23 -55l-375 -372q-22 -20 -50 -20t-50 20l-39 36q-22 22 -21 50.5zM540 240.5q1 28.5 23 48.5l309 289l-309 290q-22 20 -23 48.5t21 50.5l39 37 q22 20 50 20t50 -20l375 -373q22 -22 23 -52t-23 -55l-375 -372q-22 -20 -50 -20t-50 20l-39 38q-22 22 -21 50.5z" />
<glyph unicode="&#xbc;" horiz-adv-x="1638" d="M35 1165l31 -43q12 -19 35.5 -23.5t48.5 9.5q16 10 36 28.5t32 32t32.5 37.5t25.5 29v-385h-172q-28 0 -45.5 -18.5t-17.5 -45.5v-41q0 -29 18 -46t45 -17h517q27 0 45 17t18 46v41q0 27 -17.5 45.5t-45.5 18.5h-166v580q0 26 -17.5 42.5t-44.5 16.5h-55q-35 0 -68 -41 q-83 -101 -215 -199q-50 -34 -20 -84zM287 80q-4 30 16 57l1004 1329q19 25 50 30t56 -15l25 -19q25 -20 29 -48.5t-15 -53.5l-1008 -1337q-19 -23 -49 -27.5t-53 14.5l-27 21q-24 19 -28 49zM836 246v45q0 35 26 65l365 422q29 29 57 29h76q27 0 44 -16t17 -41v-402h82 q29 0 46.5 -17t17.5 -46v-39q0 -27 -17.5 -44.5t-46.5 -17.5h-82v-121q0 -27 -18 -45t-45 -18h-53q-25 0 -42.5 18t-17.5 45v121h-348q-26 0 -43.5 18t-17.5 44zM1057 348h188v215q-102 -126 -188 -215z" />
<glyph unicode="&#xbd;" horiz-adv-x="1638" d="M31 1165l30 -43q12 -19 35.5 -23.5t48.5 9.5q16 10 36.5 28.5t32 31t33.5 38t25 29.5v-385h-172q-28 0 -45.5 -18.5t-17.5 -45.5v-41q0 -29 18 -46t45 -17h516q27 0 45.5 17.5t18.5 45.5v41q0 27 -17.5 45.5t-46.5 18.5h-165v580q0 26 -17.5 42.5t-44.5 16.5h-55 q-35 0 -68 -41q-83 -101 -215 -199q-50 -34 -20 -84zM283 80q-4 30 16 57l1004 1329q19 25 50 30t56 -15l25 -19q25 -20 29 -48.5t-15 -53.5l-1008 -1337q-19 -23 -49 -27.5t-53 14.5l-27 21q-24 19 -28 49zM969 63v78q0 40 37 66l299 203q55 37 78.5 67t23.5 74 q0 41 -33 69.5t-90 28.5t-92.5 -28.5t-38.5 -69.5q-7 -64 -66 -64h-55q-26 0 -44.5 18.5t-18.5 45.5q0 108 92 182t223 74q129 0 216 -71.5t87 -184.5q0 -160 -184 -264l-211 -119h348q29 0 46.5 -18.5t17.5 -45.5v-41q0 -28 -18.5 -45.5t-45.5 -17.5h-508q-27 0 -45 17 t-18 46z" />
<glyph unicode="&#xbe;" horiz-adv-x="1638" d="M55 918q-3 28 14 45.5t44 17.5h61q57 0 72 -57q9 -32 50 -57t107 -25q73 0 116.5 25t43.5 69q0 84 -127 84h-30q-26 0 -44 17.5t-18 43.5v47q0 25 18 42.5t44 17.5h30q43 0 69.5 19t24.5 48q-2 37 -38 59.5t-97 22.5q-56 0 -93 -23.5t-40 -56.5q-3 -29 -22.5 -46 t-46.5 -17h-52q-27 0 -44.5 17.5t-16.5 45.5q4 103 93.5 167.5t219.5 64.5q136 0 229 -63t93 -171q0 -40 -24 -81.5t-60 -61.5q50 -25 83.5 -72t33.5 -104q0 -83 -47.5 -141.5t-125 -85.5t-176.5 -27q-136 0 -235.5 68.5t-108.5 167.5zM301.5 80q-4.5 30 15.5 57l1004 1329 q19 25 50 30t56 -15l25 -19q25 -20 29 -48.5t-15 -53.5l-1007 -1337q-19 -23 -49.5 -27.5t-53.5 14.5l-26 21q-24 19 -28.5 49zM850 246v45q0 33 27 65l364 422q29 29 57 29h76q28 0 45 -16t17 -41v-402h82q29 0 46 -17t17 -46v-39q0 -27 -17 -44.5t-46 -17.5h-82v-121 q0 -27 -18.5 -45t-45.5 -18h-53q-25 0 -42 18t-17 45v121h-349q-26 0 -43.5 18t-17.5 44zM1071 348h189v215q-97 -120 -189 -215z" />
<glyph unicode="&#xbf;" horiz-adv-x="1079" d="M84 420q1 103 56 193.5t134 148.5q54 39 81 61t56.5 52.5t41.5 59.5t12 62q0 29 21.5 49.5t52.5 20.5h57q31 0 53.5 -20.5t22.5 -49.5q0 -47 -15.5 -91.5t-34.5 -75.5t-60.5 -73t-67.5 -64t-82 -68q-53 -45 -85.5 -93t-33.5 -112q-3 -112 68 -177t186 -65q122 0 187 77.5 t54 188.5q-3 33 18.5 54.5t57.5 21.5h60q30 0 49.5 -20.5t21.5 -53.5q8 -195 -117.5 -328.5t-334.5 -133.5q-199 0 -329.5 118t-129.5 318zM418 1341q0 64 42.5 106t104.5 42t105 -42t43 -106t-43 -105.5t-105 -41.5t-104.5 41.5t-42.5 105.5z" />
<glyph unicode="&#xc0;" horiz-adv-x="1423" d="M78 80l524 1356q9 24 28 38.5t42 14.5h82q48 0 69 -53l525 -1356q11 -31 -7 -55.5t-53 -24.5h-84q-56 0 -74 49l-135 348h-565l-137 -348q-8 -20 -28.5 -34.5t-43.5 -14.5h-80q-38 0 -56.5 24.5t-6.5 55.5zM466.5 1820q9.5 23 35.5 23h123q48 0 71 -45l97 -180 q11 -22 1 -38.5t-32 -16.5h-76q-36 0 -72 36l-141 179q-16 19 -6.5 42zM502 602h420l-211 563z" />
<glyph unicode="&#xc1;" horiz-adv-x="1423" d="M78 80l524 1356q9 24 28 38.5t42 14.5h82q48 0 69 -53l525 -1356q11 -31 -7 -55.5t-53 -24.5h-84q-56 0 -74 49l-135 348h-565l-137 -348q-8 -20 -28.5 -34.5t-43.5 -14.5h-80q-38 0 -56.5 24.5t-6.5 55.5zM502 602h420l-211 563zM628 1581q-9 18 3 37l114 180 q27 45 72 45h127q27 0 35 -22t-8 -41l-160 -181q-36 -36 -72 -36h-80q-22 0 -31 18z" />
<glyph unicode="&#xc2;" horiz-adv-x="1423" d="M78 80l524 1356q9 24 28 38.5t42 14.5h82q48 0 69 -53l525 -1356q11 -31 -7 -55.5t-53 -24.5h-84q-56 0 -74 49l-135 348h-565l-137 -348q-8 -20 -28.5 -34.5t-43.5 -14.5h-80q-38 0 -56.5 24.5t-6.5 55.5zM430.5 1586q-10.5 23 9.5 46l150 176q27 35 74 35h94 q46 0 73 -35l150 -176q20 -23 9.5 -46t-38.5 -23h-80q-44 0 -73 34l-88 103l-88 -103q-29 -34 -74 -34h-80q-28 0 -38.5 23zM502 602h420l-211 563z" />
<glyph unicode="&#xc3;" horiz-adv-x="1423" d="M78 80l524 1356q9 24 28 38.5t42 14.5h82q48 0 69 -53l525 -1356q11 -31 -7 -55.5t-53 -24.5h-84q-56 0 -74 49l-135 348h-565l-137 -348q-8 -20 -28.5 -34.5t-43.5 -14.5h-80q-38 0 -56.5 24.5t-6.5 55.5zM395 1624q0 85 61 143t136 58q38 0 81 -22t80.5 -44t63.5 -22 q49 0 70 47q14 31 53 31h37q49 0 49 -48q0 -85 -60 -142.5t-135 -57.5q-42 0 -85.5 22t-80.5 44t-61 22q-48 0 -69 -47q-14 -31 -54 -31h-37q-49 0 -49 47zM502 602h420l-211 563z" />
<glyph unicode="&#xc4;" horiz-adv-x="1423" d="M78 80l524 1356q9 24 28 38.5t42 14.5h82q48 0 69 -53l525 -1356q11 -31 -7 -55.5t-53 -24.5h-84q-56 0 -74 49l-135 348h-565l-137 -348q-8 -20 -28.5 -34.5t-43.5 -14.5h-80q-38 0 -56.5 24.5t-6.5 55.5zM383 1708q0 51 38 88t89 37q50 0 88.5 -37.5t38.5 -87.5 q0 -49 -38.5 -87t-88.5 -38q-51 0 -89 37.5t-38 87.5zM502 602h420l-211 563zM786 1708q0 51 38 88t89 37q50 0 88.5 -37.5t38.5 -87.5q0 -49 -38.5 -87t-88.5 -38q-51 0 -89 37.5t-38 87.5z" />
<glyph unicode="&#xc5;" horiz-adv-x="1423" d="M78 80l524 1356q9 24 28 38.5t42 14.5h82q48 0 69 -53l525 -1356q11 -31 -7 -55.5t-53 -24.5h-84q-56 0 -74 49l-135 348h-565l-137 -348q-8 -20 -28.5 -34.5t-43.5 -14.5h-80q-38 0 -56.5 24.5t-6.5 55.5zM502 602h420l-211 563zM528 1729q0 76 54 128t131 52t129.5 -52 t52.5 -128t-52.5 -128.5t-129.5 -52.5t-131 52.5t-54 128.5zM639 1729q0 -31 21 -52.5t53 -21.5q29 0 50 21.5t21 52.5q0 29 -21 51t-50 22q-32 0 -53 -21.5t-21 -51.5z" />
<glyph unicode="&#xc6;" horiz-adv-x="2082" d="M70 29.5q-17 29.5 4 64.5l827 1336q34 59 107 59h854q31 0 53 -23t22 -55v-51q0 -34 -21.5 -55t-53.5 -21h-625v-410h481q32 0 55 -22.5t23 -54.5v-52q0 -32 -23 -54.5t-55 -22.5h-481v-463h664q35 0 57 -21.5t22 -52.5v-55q0 -32 -22 -54t-57 -22h-801q-32 0 -55 22.5 t-23 53.5v336h-506l-207 -346q-38 -66 -108 -66h-76q-38 0 -55 29.5zM639 614h383v654z" />
<glyph unicode="&#xc7;" horiz-adv-x="1468" d="M133 743q0 340 174.5 551t462.5 211q203 0 352.5 -118t196.5 -312q8 -30 -5 -54.5t-42 -33.5l-62 -18q-31 -11 -59.5 3t-38.5 46q-41 131 -126.5 208.5t-215.5 78.5q-194 1 -309 -152t-115 -408q0 -161 49.5 -286.5t143 -197t217.5 -71.5q131 0 219 61t145 177 q26 57 86 57h76q37 0 54.5 -28.5t2.5 -65.5q-147 -362 -493 -401v-88q0 -104 -68.5 -167t-171.5 -63h-49q-32 0 -51 18t-19 50v41q0 31 19 49t51 18h51q28 0 45 15t17 41v86q-162 21 -284.5 124t-187.5 266t-65 363z" />
<glyph unicode="&#xc8;" horiz-adv-x="1288" d="M205 76v1335q0 32 23 55t55 23h784q31 0 53.5 -23t22.5 -55v-51q0 -34 -22 -55t-54 -21h-647v-410h504q32 0 54.5 -22.5t22.5 -54.5v-52q0 -32 -22.5 -54.5t-54.5 -22.5h-504v-463h686q35 0 57.5 -21.5t22.5 -52.5v-55q0 -31 -22.5 -53.5t-57.5 -22.5h-823 q-32 0 -55 22.5t-23 53.5zM456.5 1820q9.5 23 35.5 23h122q49 0 72 -45l96 -180q12 -22 2 -38.5t-32 -16.5h-76q-36 0 -72 36l-141 179q-16 19 -6.5 42z" />
<glyph unicode="&#xc9;" horiz-adv-x="1288" d="M205 76v1335q0 32 23 55t55 23h784q31 0 53.5 -23t22.5 -55v-51q0 -34 -22 -55t-54 -21h-647v-410h504q32 0 54.5 -22.5t22.5 -54.5v-52q0 -32 -22.5 -54.5t-54.5 -22.5h-504v-463h686q35 0 57.5 -21.5t22.5 -52.5v-55q0 -31 -22.5 -53.5t-57.5 -22.5h-823 q-32 0 -55 22.5t-23 53.5zM577 1581q-9 18 3 37l114 180q27 45 72 45h127q27 0 35 -22t-8 -41l-160 -181q-36 -36 -72 -36h-80q-22 0 -31 18z" />
<glyph unicode="&#xca;" horiz-adv-x="1288" d="M205 76v1335q0 32 23 55t55 23h784q31 0 53.5 -23t22.5 -55v-51q0 -34 -22 -55t-54 -21h-647v-410h504q32 0 54.5 -22.5t22.5 -54.5v-52q0 -32 -22.5 -54.5t-54.5 -22.5h-504v-463h686q35 0 57.5 -21.5t22.5 -52.5v-55q0 -31 -22.5 -53.5t-57.5 -22.5h-823 q-32 0 -55 22.5t-23 53.5zM393.5 1586q-10.5 23 9.5 46l150 176q27 35 74 35h94q47 0 74 -35l149 -176q20 -23 9.5 -46t-38.5 -23h-79q-45 0 -74 34l-88 103l-88 -103q-29 -34 -74 -34h-80q-28 0 -38.5 23z" />
<glyph unicode="&#xcb;" horiz-adv-x="1288" d="M205 76v1335q0 32 23 55t55 23h784q31 0 53.5 -23t22.5 -55v-51q0 -34 -22 -55t-54 -21h-647v-410h504q32 0 54.5 -22.5t22.5 -54.5v-52q0 -32 -22.5 -54.5t-54.5 -22.5h-504v-463h686q35 0 57.5 -21.5t22.5 -52.5v-55q0 -31 -22.5 -53.5t-57.5 -22.5h-823 q-32 0 -55 22.5t-23 53.5zM356 1708q0 51 38 88t89 37q50 0 88.5 -37.5t38.5 -87.5q0 -49 -38.5 -87t-88.5 -38q-51 0 -89 37.5t-38 87.5zM760 1708q0 51 38 88t89 37q50 0 88.5 -37.5t38.5 -87.5q0 -49 -38.5 -87t-88.5 -38q-51 0 -89 37.5t-38 87.5z" />
<glyph unicode="&#xcc;" horiz-adv-x="743" d="M128.5 1820q9.5 23 35.5 23h123q48 0 71 -45l97 -180q11 -22 1 -38.5t-32 -16.5h-76q-36 0 -72 36l-141 179q-16 19 -6.5 42zM266 74v1339q0 32 22 54t54 22h59q32 0 54 -22t22 -54v-1339q0 -31 -22 -52.5t-54 -21.5h-57q-32 0 -55 21.5t-23 52.5z" />
<glyph unicode="&#xcd;" horiz-adv-x="743" d="M266 74v1339q0 32 22 54t54 22h59q32 0 54 -22t22 -54v-1339q0 -31 -22 -52.5t-54 -21.5h-57q-32 0 -55 21.5t-23 52.5zM290.5 1581q-9.5 18 2.5 37l115 180q27 45 71 45h127q27 0 35 -22t-8 -41l-160 -181q-36 -36 -72 -36h-79q-22 0 -31.5 18z" />
<glyph unicode="&#xce;" horiz-adv-x="743" d="M90.5 1586q-10.5 23 9.5 46l150 176q27 35 74 35h94q47 0 74 -35l149 -176q20 -23 9.5 -46t-38.5 -23h-80q-44 0 -73 34l-88 103l-88 -103q-29 -34 -74 -34h-80q-28 0 -38.5 23zM266 74v1339q0 32 22 54t54 22h59q32 0 54 -22t22 -54v-1339q0 -31 -22 -52.5t-54 -21.5 h-57q-32 0 -55 21.5t-23 52.5z" />
<glyph unicode="&#xcf;" horiz-adv-x="743" d="M45 1708q0 51 38 88t89 37q50 0 88.5 -37.5t38.5 -87.5q0 -49 -38.5 -87t-88.5 -38q-51 0 -89 37.5t-38 87.5zM266 74v1339q0 32 22 54t54 22h59q32 0 54 -22t22 -54v-1339q0 -31 -22 -52.5t-54 -21.5h-57q-32 0 -55 21.5t-23 52.5zM449 1708q0 51 37.5 88t88.5 37 q50 0 88.5 -37.5t38.5 -87.5q0 -49 -38.5 -87t-88.5 -38q-51 0 -88.5 37.5t-37.5 87.5z" />
<glyph unicode="&#xd0;" horiz-adv-x="1529" d="M72 760v51q0 33 22.5 55.5t57.5 22.5h86v522q0 32 21 55t52 23h363q326 0 524.5 -204.5t198.5 -543.5q0 -162 -54.5 -301t-149.5 -235t-228 -150.5t-287 -54.5h-367q-30 0 -51.5 22.5t-21.5 53.5v606h-86q-35 0 -57.5 22.5t-22.5 55.5zM449 203h235q226 0 364 150.5 t138 387.5q0 246 -136 395.5t-368 149.5h-233v-397h284q31 0 53.5 -23t22.5 -55v-51q0 -32 -22.5 -55t-53.5 -23h-284v-479z" />
<glyph unicode="&#xd1;" horiz-adv-x="1480" d="M205 76v1335q0 32 23 55t55 23h86q55 0 80 -45l616 -1038v1005q0 32 22 55t54 23h57q32 0 55 -23t23 -55v-1335q0 -31 -23 -53.5t-55 -22.5h-76q-49 0 -78 51l-628 1063v-1038q0 -31 -22 -53.5t-54 -22.5h-57q-32 0 -55 22.5t-23 53.5zM436 1624q0 85 61 143t136 58 q38 0 81 -22t80.5 -44t63.5 -22q49 0 70 47q14 31 53 31h37q49 0 49 -48q0 -85 -60 -142.5t-135 -57.5q-42 0 -85.5 22t-80.5 44t-61 22q-49 0 -70 -47q-14 -31 -53 -31h-37q-49 0 -49 47z" />
<glyph unicode="&#xd2;" horiz-adv-x="1488" d="M133 743q0 164 44 305t122.5 242t192.5 158t249 57q179 0 320 -99.5t218 -273t77 -389.5q0 -217 -78 -390t-219 -271t-318 -98q-181 0 -320 97.5t-213.5 269.5t-74.5 392zM346 743q0 -245 106 -400t289 -155t292.5 156t109.5 399q0 246 -110 403t-292 157 q-180 0 -287.5 -159t-107.5 -401zM507.5 1820q9.5 23 35.5 23h123q48 0 71 -45l97 -180q11 -22 1 -38.5t-32 -16.5h-76q-36 0 -72 36l-141 179q-16 19 -6.5 42z" />
<glyph unicode="&#xd3;" horiz-adv-x="1488" d="M133 743q0 164 44 305t122.5 242t192.5 158t249 57q179 0 320 -99.5t218 -273t77 -389.5q0 -217 -78 -390t-219 -271t-318 -98q-181 0 -320 97.5t-213.5 269.5t-74.5 392zM346 743q0 -245 106 -400t289 -155t292.5 156t109.5 399q0 246 -110 403t-292 157 q-180 0 -287.5 -159t-107.5 -401zM669 1581q-9 18 3 37l114 180q27 45 72 45h127q27 0 35 -22t-8 -41l-160 -181q-36 -36 -72 -36h-80q-22 0 -31 18z" />
<glyph unicode="&#xd4;" horiz-adv-x="1488" d="M133 743q0 164 44 305t122.5 242t192.5 158t249 57q179 0 320 -99.5t218 -273t77 -389.5q0 -217 -78 -390t-219 -271t-318 -98q-181 0 -320 97.5t-213.5 269.5t-74.5 392zM346 743q0 -245 106 -400t289 -155t292.5 156t109.5 399q0 246 -110 403t-292 157 q-180 0 -287.5 -159t-107.5 -401zM461.5 1586q-10.5 23 9.5 46l150 176q27 35 73 35h94q47 0 74 -35l150 -176q20 -23 9.5 -46t-38.5 -23h-80q-45 0 -74 34l-88 103l-88 -103q-29 -34 -73 -34h-80q-28 0 -38.5 23z" />
<glyph unicode="&#xd5;" horiz-adv-x="1488" d="M133 743q0 164 44 305t122.5 242t192.5 158t249 57q179 0 320 -99.5t218 -273t77 -389.5q0 -217 -78 -390t-219 -271t-318 -98q-181 0 -320 97.5t-213.5 269.5t-74.5 392zM346 743q0 -245 106 -400t289 -155t292.5 156t109.5 399q0 246 -110 403t-292 157 q-180 0 -287.5 -159t-107.5 -401zM430 1624q0 85 61 143t136 58q38 0 81 -22t80.5 -44t63.5 -22q49 0 70 47q14 31 53 31h37q49 0 49 -48q0 -85 -60 -142.5t-135 -57.5q-42 0 -85.5 22t-80.5 44t-61 22q-49 0 -70 -47q-14 -31 -53 -31h-37q-49 0 -49 47z" />
<glyph unicode="&#xd6;" horiz-adv-x="1488" d="M133 743q0 164 44 305t122.5 242t192.5 158t249 57q179 0 320 -99.5t218 -273t77 -389.5q0 -217 -78 -390t-219 -271t-318 -98q-181 0 -320 97.5t-213.5 269.5t-74.5 392zM346 743q0 -245 106 -400t289 -155t292.5 156t109.5 399q0 246 -110 403t-292 157 q-180 0 -287.5 -159t-107.5 -401zM416 1708q0 51 38 88t89 37q50 0 88.5 -37.5t38.5 -87.5q0 -49 -38.5 -87t-88.5 -38q-51 0 -89 37.5t-38 87.5zM819 1708q0 51 38 88t89 37q50 0 88.5 -37.5t38.5 -87.5q0 -49 -38.5 -87t-88.5 -38q-51 0 -89 37.5t-38 87.5z" />
<glyph unicode="&#xd7;" horiz-adv-x="1048" d="M83 182q0 28 23 51l281 281l-278 279q-22 22 -22 52t22 52l34 37q23 21 51 21.5t54 -23.5l278 -279l279 279q22 22 52 22t52 -22l37 -35q21 -23 21.5 -50.5t-23.5 -53.5l-278 -279l280 -281q22 -22 21 -51.5t-23 -52.5l-35 -35q-23 -23 -51 -23t-51 23l-281 281 l-280 -281q-22 -22 -52 -21t-53 23l-35 35q-23 23 -23 51z" />
<glyph unicode="&#xd8;" horiz-adv-x="1540" d="M146 97q-4 30 16 55l114 141q-102 193 -102 452q0 219 75 392t214 270.5t319 97.5q211 0 365 -135l78 94q20 23 50.5 26.5t53.5 -15.5l39 -33q25 -19 27.5 -49.5t-17.5 -53.5l-102 -125q121 -200 121 -471q0 -217 -78 -390t-219 -271t-318 -98q-225 0 -381 147l-84 -104 q-20 -23 -48.5 -26.5t-53.5 15.5l-39 31q-26 20 -30 50zM387 743q0 -153 39 -266l592 733q-101 95 -236 95q-120 0 -211 -75t-137.5 -202t-46.5 -285zM532 293q99 -107 250 -107q121 0 213.5 73t140.5 198.5t48 285.5q0 163 -51 293z" />
<glyph unicode="&#xd9;" horiz-adv-x="1476" d="M205 502v909q0 32 22.5 55t53.5 23h61q32 0 55 -23t23 -55v-913q0 -147 86 -229.5t233 -82.5q148 0 233 82.5t85 229.5v913q0 32 23 55t55 23h59q32 0 55 -23t23 -55v-909q0 -237 -146 -376.5t-387 -139.5q-245 0 -389.5 138t-144.5 378zM507.5 1820q9.5 23 35.5 23h123 q48 0 71 -45l97 -180q11 -22 1 -38.5t-32 -16.5h-76q-36 0 -72 36l-141 179q-16 19 -6.5 42z" />
<glyph unicode="&#xda;" horiz-adv-x="1476" d="M205 502v909q0 32 22.5 55t53.5 23h61q32 0 55 -23t23 -55v-913q0 -147 86 -229.5t233 -82.5q148 0 233 82.5t85 229.5v913q0 32 23 55t55 23h59q32 0 55 -23t23 -55v-909q0 -237 -146 -376.5t-387 -139.5q-245 0 -389.5 138t-144.5 378zM669 1581q-9 18 3 37l114 180 q27 45 72 45h127q27 0 35 -22t-8 -41l-160 -181q-36 -36 -72 -36h-80q-22 0 -31 18z" />
<glyph unicode="&#xdb;" horiz-adv-x="1476" d="M205 502v909q0 32 22.5 55t53.5 23h61q32 0 55 -23t23 -55v-913q0 -147 86 -229.5t233 -82.5q148 0 233 82.5t85 229.5v913q0 32 23 55t55 23h59q32 0 55 -23t23 -55v-909q0 -237 -146 -376.5t-387 -139.5q-245 0 -389.5 138t-144.5 378zM455.5 1586q-10.5 23 9.5 46 l149 176q27 35 74 35h94q47 0 74 -35l150 -176q20 -23 9.5 -46t-38.5 -23h-80q-45 0 -74 34l-88 103l-88 -103q-29 -34 -74 -34h-79q-28 0 -38.5 23z" />
<glyph unicode="&#xdc;" horiz-adv-x="1476" d="M205 502v909q0 32 22.5 55t53.5 23h61q32 0 55 -23t23 -55v-913q0 -147 86 -229.5t233 -82.5q148 0 233 82.5t85 229.5v913q0 32 23 55t55 23h59q32 0 55 -23t23 -55v-909q0 -237 -146 -376.5t-387 -139.5q-245 0 -389.5 138t-144.5 378zM410 1708q0 51 38 88t89 37 q50 0 88.5 -37.5t38.5 -87.5q0 -49 -38.5 -87t-88.5 -38q-51 0 -89 37.5t-38 87.5zM813 1708q0 51 38 88t89 37q50 0 88.5 -37.5t38.5 -87.5q0 -49 -38.5 -87t-88.5 -38q-51 0 -89 37.5t-38 87.5z" />
<glyph unicode="&#xdd;" horiz-adv-x="1269" d="M48.5 1458.5q16.5 30.5 57.5 30.5h87q47 0 71 -43l371 -676l371 676q22 43 71 43h86q37 0 56 -32t0 -64l-480 -848v-469q0 -31 -22 -53.5t-51 -22.5h-60q-32 0 -55 22.5t-23 53.5v469l-475 848q-21 35 -4.5 65.5zM566.5 1581q-9.5 18 2.5 37l115 180q27 45 72 45h127 q27 0 34.5 -22t-8.5 -41l-159 -181q-36 -36 -72 -36h-80q-22 0 -31.5 18z" />
<glyph unicode="&#xde;" horiz-adv-x="1366" d="M205 76v1335q0 33 22.5 55.5t55.5 22.5h61q33 0 54.5 -22.5t21.5 -55.5v-172h375q226 0 357.5 -125.5t131.5 -335.5q0 -209 -131.5 -334t-357.5 -125h-375v-243q0 -31 -22.5 -53.5t-53.5 -22.5h-61q-32 0 -55 22.5t-23 53.5zM420 524h373q131 0 202.5 65.5t71.5 188.5 q0 122 -72 190t-202 68h-373v-512z" />
<glyph unicode="&#xdf;" horiz-adv-x="1226" d="M164 74v1032q0 186 124 292.5t314 106.5q193 0 315.5 -106t122.5 -291q0 -88 -44.5 -166.5t-108.5 -120.5q94 -56 155.5 -152t61.5 -218q0 -210 -138.5 -330.5t-365.5 -120.5h-61q-32 0 -54 21.5t-22 52.5v51q0 30 22 51t54 21h61q133 0 215 64.5t82 189.5 q0 121 -84 188.5t-215 67.5h-57q-32 0 -54 21t-22 50v51q0 30 22 51t54 21h63q103 0 167.5 56.5t64.5 148.5q0 97 -65 153t-171 56t-169.5 -56t-63.5 -153v-1032q0 -31 -22 -52.5t-54 -21.5h-58q-29 0 -49 21.5t-20 52.5z" />
<glyph unicode="&#xe0;" d="M115 295q0 142 95.5 217.5t254.5 75.5q56 0 158 4q104 4 131 49v10q2 91 -52 146t-157 55q-92 0 -144 -36t-65 -99q-6 -29 -28 -45.5t-54 -16.5h-61q-31 0 -49.5 19.5t-12.5 50.5q24 143 137 227t275 84q180 0 294.5 -111t114.5 -288v-401q0 -19 12 -30t31 -11 q30 0 49 -19t19 -49v-57q0 -32 -20.5 -51t-53.5 -19h-41q-47 0 -96 28t-64 62q-33 -43 -91 -70t-119 -30q-71 -4 -111 -2q-163 8 -257.5 87.5t-94.5 219.5zM304 1403q8 20 34 20h125q49 0 65 -41l90 -225q7 -16 -1.5 -31.5t-28.5 -15.5h-70q-37 0 -63 33l-146 223 q-13 17 -5 37zM319 297q0 -51 39 -82t109 -37q63 -6 123 0q71 8 114 40.5t50 84.5v156q-38 -33 -129 -41q-83 -6 -164 -6q-65 0 -103.5 -30.5t-38.5 -84.5z" />
<glyph unicode="&#xe1;" d="M115 295q0 142 95.5 217.5t254.5 75.5q56 0 158 4q104 4 131 49v10q2 91 -52 146t-157 55q-92 0 -144 -36t-65 -99q-6 -29 -28 -45.5t-54 -16.5h-61q-31 0 -49.5 19.5t-12.5 50.5q24 143 137 227t275 84q180 0 294.5 -111t114.5 -288v-401q0 -19 12 -30t31 -11 q30 0 49 -19t19 -49v-57q0 -32 -20.5 -51t-53.5 -19h-41q-47 0 -96 28t-64 62q-33 -43 -91 -70t-119 -30q-71 -4 -111 -2q-163 8 -257.5 87.5t-94.5 219.5zM319 297q0 -51 39 -82t109 -37q63 -6 123 0q71 8 114 40.5t50 84.5v156q-38 -33 -129 -41q-83 -6 -164 -6 q-65 0 -103.5 -30.5t-38.5 -84.5zM451.5 1127q-7.5 17 1.5 32l108 223q21 41 68 41h119q31 0 38 -23.5t-8 -37.5l-157 -215q-29 -37 -70 -37h-70q-22 0 -29.5 17z" />
<glyph unicode="&#xe2;" d="M115 295q0 142 95.5 217.5t254.5 75.5q56 0 158 4q104 4 131 49v10q2 91 -52 146t-157 55q-92 0 -144 -36t-65 -99q-6 -29 -28 -45.5t-54 -16.5h-61q-31 0 -49.5 19.5t-12.5 50.5q24 143 137 227t275 84q180 0 294.5 -111t114.5 -288v-401q0 -19 12 -30t31 -11 q30 0 49 -19t19 -49v-57q0 -32 -20.5 -51t-53.5 -19h-41q-47 0 -96 28t-64 62q-33 -43 -91 -70t-119 -30q-71 -4 -111 -2q-163 8 -257.5 87.5t-94.5 219.5zM272.5 1149.5q0.5 14.5 8.5 24.5l149 186q32 37 70 37h90q37 0 69 -37l150 -186q7 -10 8 -24.5t-9.5 -27 t-31.5 -12.5h-74q-8 0 -15.5 1t-13.5 3.5t-10 4.5t-8.5 6.5l-6.5 6.5t-6 7t-5 6l-94 104l-90 -104q-1 -1 -4.5 -5.5t-5 -6l-5.5 -5.5t-7 -6t-8 -4.5t-10 -4t-12 -2.5t-14 -1h-74q-21 0 -31 12.5t-9.5 27zM319 297q0 -51 39 -82t109 -37q63 -6 123 0q71 8 114 40.5t50 84.5 v156q-38 -33 -129 -41q-83 -6 -164 -6q-65 0 -103.5 -30.5t-38.5 -84.5z" />
<glyph unicode="&#xe3;" d="M115 295q0 142 95.5 217.5t254.5 75.5q56 0 158 4q104 4 131 49v10q2 91 -52 146t-157 55q-92 0 -144 -36t-65 -99q-6 -29 -28 -45.5t-54 -16.5h-61q-31 0 -49.5 19.5t-12.5 50.5q24 143 137 227t275 84q180 0 294.5 -111t114.5 -288v-401q0 -19 12 -30t31 -11 q30 0 49 -19t19 -49v-57q0 -32 -20.5 -51t-53.5 -19h-41q-47 0 -96 28t-64 62q-33 -43 -91 -70t-119 -30q-71 -4 -111 -2q-163 8 -257.5 87.5t-94.5 219.5zM233 1178q0 83 60.5 138.5t134.5 55.5q45 0 87.5 -22t76 -44t57.5 -22q48 0 68 45q14 31 53 31h37q23 0 36 -12.5 t13 -34.5q0 -83 -59 -139t-133 -56q-45 0 -88 22t-78 44t-58 22q-47 0 -67 -45q-14 -31 -54 -31h-36q-22 0 -36 12.5t-14 35.5zM319 297q0 -51 39 -82t109 -37q63 -6 123 0q71 8 114 40.5t50 84.5v156q-38 -33 -129 -41q-83 -6 -164 -6q-65 0 -103.5 -30.5t-38.5 -84.5z" />
<glyph unicode="&#xe4;" d="M115 295q0 142 95.5 217.5t254.5 75.5q56 0 158 4q104 4 131 49v10q2 91 -52 146t-157 55q-92 0 -144 -36t-65 -99q-6 -29 -28 -45.5t-54 -16.5h-61q-31 0 -49.5 19.5t-12.5 50.5q24 143 137 227t275 84q180 0 294.5 -111t114.5 -288v-401q0 -19 12 -30t31 -11 q30 0 49 -19t19 -49v-57q0 -32 -20.5 -51t-53.5 -19h-41q-47 0 -96 28t-64 62q-33 -43 -91 -70t-119 -30q-71 -4 -111 -2q-163 8 -257.5 87.5t-94.5 219.5zM219 1266q0 51 38 88t89 37q50 0 88.5 -37.5t38.5 -87.5q0 -49 -38.5 -87t-88.5 -38q-51 0 -89 37.5t-38 87.5z M319 297q0 -51 39 -82t109 -37q63 -6 123 0q71 8 114 40.5t50 84.5v156q-38 -33 -129 -41q-83 -6 -164 -6q-65 0 -103.5 -30.5t-38.5 -84.5zM623 1266q0 51 38 88t89 37q50 0 88.5 -37.5t38.5 -87.5q0 -49 -38.5 -87t-88.5 -38q-51 0 -89 37.5t-38 87.5z" />
<glyph unicode="&#xe5;" d="M115 295q0 142 95.5 217.5t254.5 75.5q56 0 158 4q104 4 131 49v10q2 91 -52 146t-157 55q-92 0 -144 -36t-65 -99q-6 -29 -28 -45.5t-54 -16.5h-61q-31 0 -49.5 19.5t-12.5 50.5q24 143 137 227t275 84q180 0 294.5 -111t114.5 -288v-401q0 -19 12 -30t31 -11 q30 0 49 -19t19 -49v-57q0 -32 -20.5 -51t-53.5 -19h-41q-47 0 -96 28t-64 62q-33 -43 -91 -70t-119 -30q-71 -4 -111 -2q-163 8 -257.5 87.5t-94.5 219.5zM319 297q0 -51 39 -82t109 -37q63 -6 123 0q71 8 114 40.5t50 84.5v156q-38 -33 -129 -41q-83 -6 -164 -6 q-65 0 -103.5 -30.5t-38.5 -84.5zM371 1280q0 76 53.5 128t130.5 52t129.5 -52t52.5 -128t-52.5 -128t-129.5 -52t-130.5 52t-53.5 128zM481 1280q0 -31 21 -52.5t53 -21.5q29 0 50.5 21.5t21.5 52.5q0 29 -21.5 51.5t-50.5 22.5q-32 0 -53 -22t-21 -52z" />
<glyph unicode="&#xe6;" horiz-adv-x="1779" d="M113 297q0 144 96 219.5t256 77.5l166 2q42 0 79.5 11.5t51.5 33.5v10q0 89 -58 146t-161 57q-92 0 -144.5 -36.5t-66.5 -100.5q-6 -29 -28 -45.5t-54 -16.5h-57q-29 0 -48.5 19.5t-15.5 50.5q24 145 137.5 228t276.5 83q107 0 194 -41.5t142 -115.5q63 74 153.5 115.5 t198.5 41.5q189 0 312.5 -123t123.5 -301v-67q0 -36 -21 -56t-55 -20h-626q-1 -127 76.5 -213t191.5 -86q76 0 135 35.5t88 99.5q24 51 78 51h61q37 0 55 -27t5 -63q-50 -130 -162.5 -206t-259.5 -76q-219 0 -352 149q-42 -64 -122 -102t-159 -41q-68 -3 -131 0 q-165 8 -260.5 86.5t-95.5 220.5zM319 295q0 -51 42 -82.5t112 -34.5q69 -3 137 0q66 3 105.5 40t46.5 85v150q-35 -33 -129 -37l-170 -4q-144 -3 -144 -117zM975 645h485q-3 89 -69.5 150t-163.5 61q-100 0 -168.5 -63.5t-83.5 -147.5z" />
<glyph unicode="&#xe7;" horiz-adv-x="1097" d="M102 510q0 148 56 267t163 189t246 70q156 0 261 -76.5t149 -207.5q10 -28 -0.5 -52t-42.5 -34l-55 -19q-31 -9 -57 1t-36 40q-28 75 -84.5 118t-134.5 44q-121 1 -193.5 -96t-72.5 -244q0 -145 73.5 -241t196.5 -95q82 2 143.5 45.5t84.5 116.5q7 27 28.5 42t51.5 15h63 q32 0 49.5 -23t9.5 -55q-29 -122 -124.5 -210t-225.5 -113v-90q0 -104 -68 -167t-171 -63h-50q-32 0 -50.5 18t-18.5 50v41q0 31 18.5 49t50.5 18h52q28 0 44.5 15t16.5 41v88q-175 30 -274 171.5t-99 346.5z" />
<glyph unicode="&#xe8;" horiz-adv-x="1118" d="M102 518q0 143 55.5 260t163.5 187.5t250 70.5q188 0 309 -123.5t126 -302.5v-65q0 -36 -21 -56t-55 -20h-625q-2 -128 74 -213.5t194 -85.5q77 0 135 33t87 96q24 51 79 51h62q37 0 53.5 -26.5t3.5 -63.5q-50 -129 -161 -202.5t-259 -73.5q-220 0 -345.5 149.5 t-125.5 384.5zM317 643h482q-2 89 -67 151t-163 62q-100 0 -168.5 -64t-83.5 -149zM345 1403q8 20 34 20h125q49 0 65 -41l90 -225q7 -16 -1.5 -31.5t-28.5 -15.5h-70q-37 0 -63 33l-146 223q-13 17 -5 37z" />
<glyph unicode="&#xe9;" horiz-adv-x="1118" d="M102 518q0 143 55.5 260t163.5 187.5t250 70.5q188 0 309 -123.5t126 -302.5v-65q0 -36 -21 -56t-55 -20h-625q-2 -128 74 -213.5t194 -85.5q77 0 135 33t87 96q24 51 79 51h62q37 0 53.5 -26.5t3.5 -63.5q-50 -129 -161 -202.5t-259 -73.5q-220 0 -345.5 149.5 t-125.5 384.5zM317 643h482q-2 89 -67 151t-163 62q-100 0 -168.5 -64t-83.5 -149zM492.5 1127q-7.5 17 1.5 32l108 223q20 41 68 41h118q31 0 38.5 -23.5t-7.5 -37.5l-157 -215q-29 -37 -70 -37h-70q-22 0 -29.5 17z" />
<glyph unicode="&#xea;" horiz-adv-x="1118" d="M102 518q0 143 55.5 260t163.5 187.5t250 70.5q188 0 309 -123.5t126 -302.5v-65q0 -36 -21 -56t-55 -20h-625q-2 -128 74 -213.5t194 -85.5q77 0 135 33t87 96q24 51 79 51h62q37 0 53.5 -26.5t3.5 -63.5q-50 -129 -161 -202.5t-259 -73.5q-220 0 -345.5 149.5 t-125.5 384.5zM303 1149.5q1 14.5 8 24.5l150 186q32 37 69 37h91q37 0 69 -37l150 -186q7 -10 8 -24.5t-9.5 -27t-31.5 -12.5h-74q-8 0 -15.5 1t-13.5 3.5t-10 4.5t-8.5 6.5l-6.5 6.5t-6 7t-5 6l-95 104l-90 -104q-1 -1 -5 -6t-6 -7l-6.5 -6.5t-8.5 -6.5t-10 -4.5 t-13.5 -3.5t-15.5 -1h-74q-21 0 -31.5 12.5t-9.5 27zM317 643h482q-2 89 -67 151t-163 62q-100 0 -168.5 -64t-83.5 -149z" />
<glyph unicode="&#xeb;" horiz-adv-x="1118" d="M102 518q0 143 55.5 260t163.5 187.5t250 70.5q188 0 309 -123.5t126 -302.5v-65q0 -36 -21 -56t-55 -20h-625q-2 -128 74 -213.5t194 -85.5q77 0 135 33t87 96q24 51 79 51h62q37 0 53.5 -26.5t3.5 -63.5q-50 -129 -161 -202.5t-259 -73.5q-220 0 -345.5 149.5 t-125.5 384.5zM240 1266q0 51 38 88t89 37q50 0 88.5 -37.5t38.5 -87.5q0 -49 -38.5 -87t-88.5 -38q-51 0 -89 37.5t-38 87.5zM317 643h482q-2 89 -67 151t-163 62q-100 0 -168.5 -64t-83.5 -149zM643 1266q0 51 38 88t89 37q50 0 88.5 -37.5t38.5 -87.5q0 -49 -38.5 -87 t-88.5 -38q-51 0 -89 37.5t-38 87.5z" />
<glyph unicode="&#xec;" horiz-adv-x="614" d="M68 1403q8 20 34 20h125q50 0 66 -41l90 -225q7 -16 -1.5 -31.5t-29.5 -15.5h-69q-38 0 -64 33l-145 223q-14 17 -6 37zM209 74v872q0 31 20.5 52.5t51.5 21.5h53q33 0 52.5 -21t19.5 -53v-872q0 -31 -21.5 -52.5t-52.5 -21.5h-51q-31 0 -51.5 21.5t-20.5 52.5z" />
<glyph unicode="&#xed;" horiz-adv-x="614" d="M209 74v872q0 31 20.5 52.5t51.5 21.5h53q33 0 52.5 -21t19.5 -53v-872q0 -31 -21.5 -52.5t-52.5 -21.5h-51q-31 0 -51.5 21.5t-20.5 52.5zM226 1127q-8 17 1 32l109 223q20 41 67 41h119q31 0 38.5 -23.5t-7.5 -37.5l-158 -215q-29 -37 -69 -37h-70q-22 0 -30 17z" />
<glyph unicode="&#xee;" horiz-adv-x="614" d="M37 1149.5q1 14.5 8 24.5l150 186q32 37 69 37h90q38 0 70 -37l149 -186q8 -10 8.5 -24.5t-9.5 -27t-31 -12.5h-74q-19 0 -34 7.5t-17.5 10.5t-14.5 17l-94 104l-90 -104q-1 -1 -5 -6t-6 -7l-6.5 -6.5t-8.5 -6.5t-10 -4.5t-13.5 -3.5t-15.5 -1h-74q-21 0 -31.5 12.5 t-9.5 27zM209 74v872q0 31 20.5 52.5t51.5 21.5h53q33 0 52.5 -21t19.5 -53v-872q0 -31 -21.5 -52.5t-52.5 -21.5h-51q-31 0 -51.5 21.5t-20.5 52.5z" />
<glyph unicode="&#xef;" horiz-adv-x="614" d="M-23 1266q0 51 38 88t89 37q50 0 88.5 -37.5t38.5 -87.5q0 -49 -38.5 -87t-88.5 -38q-51 0 -89 37.5t-38 87.5zM209 74v872q0 31 20.5 52.5t51.5 21.5h53q33 0 52.5 -21t19.5 -53v-872q0 -31 -21.5 -52.5t-52.5 -21.5h-51q-31 0 -51.5 21.5t-20.5 52.5zM381 1266 q0 51 38 88t89 37q50 0 88.5 -37.5t38.5 -87.5q0 -49 -38.5 -87t-88.5 -38q-51 0 -89 37.5t-38 87.5z" />
<glyph unicode="&#xf0;" horiz-adv-x="1226" d="M102 477q0 134 62 246t176 178t256 66q81 0 170.5 -36.5t146.5 -92.5q-6 74 -49.5 161.5t-97.5 141.5l-178 -103q-28 -15 -57 -7t-44 34l-26 47q-14 26 -6 55.5t34 42.5l125 70q-39 31 -63 45q-26 17 -29.5 46.5t15.5 53.5l30 41q17 23 50 27t57 -12q56 -34 129 -92 l145 84q29 18 56.5 13t44.5 -34l30 -57q14 -25 5 -53.5t-35 -41.5l-109 -59q174 -237 174 -600q0 -57 -2 -88q-20 -270 -164 -417.5t-360 -147.5q-145 0 -257 66t-170.5 177t-58.5 246zM305 477q0 -130 79 -216.5t206 -86.5q132 0 218.5 85.5t86.5 223.5q0 129 -88 214 t-217 85q-127 0 -206 -87t-79 -218z" />
<glyph unicode="&#xf1;" horiz-adv-x="1187" d="M164 74v872q0 31 20.5 52.5t51.5 21.5h53q32 0 51.5 -20.5t21.5 -51.5l3 -28q47 50 119 83t145 33q183 1 289 -108.5t106 -296.5v-557q0 -31 -21.5 -52.5t-52.5 -21.5h-53q-31 0 -52.5 21.5t-21.5 52.5v561q0 102 -58.5 158.5t-160.5 56.5q-80 0 -148.5 -57.5 t-90.5 -128.5v-590q0 -31 -22 -52.5t-54 -21.5h-53q-31 0 -51.5 21.5t-20.5 52.5zM285 1178q0 83 60 138.5t134 55.5q45 0 87.5 -22t76 -44t57.5 -22q48 0 68 45q14 31 53 31h37q23 0 36 -12.5t13 -34.5q0 -83 -59 -139t-133 -56q-45 0 -88 22t-77.5 44t-57.5 22 q-48 0 -68 -45q-14 -31 -53 -31h-37q-22 0 -35.5 12.5t-13.5 35.5z" />
<glyph unicode="&#xf2;" horiz-adv-x="1138" d="M102 512q0 225 135 374.5t332 149.5t332 -149.5t135 -374.5q0 -229 -133.5 -378.5t-333.5 -149.5t-333.5 149.5t-133.5 378.5zM301 512q0 -149 75.5 -243.5t192.5 -94.5q118 0 193.5 94t75.5 244q0 145 -76 241.5t-193 96.5q-116 0 -192 -96.5t-76 -241.5zM335 1403 q8 20 34 20h125q49 0 65 -41l90 -225q7 -16 -1.5 -31.5t-29.5 -15.5h-69q-38 0 -64 33l-145 223q-13 17 -5 37z" />
<glyph unicode="&#xf3;" horiz-adv-x="1138" d="M102 512q0 225 135 374.5t332 149.5t332 -149.5t135 -374.5q0 -229 -133.5 -378.5t-333.5 -149.5t-333.5 149.5t-133.5 378.5zM301 512q0 -149 75.5 -243.5t192.5 -94.5q118 0 193.5 94t75.5 244q0 145 -76 241.5t-193 96.5q-116 0 -192 -96.5t-76 -241.5zM492.5 1127 q-7.5 17 1.5 32l108 223q20 41 68 41h118q31 0 38.5 -23.5t-7.5 -37.5l-157 -215q-29 -37 -70 -37h-70q-22 0 -29.5 17z" />
<glyph unicode="&#xf4;" horiz-adv-x="1138" d="M102 512q0 225 135 374.5t332 149.5t332 -149.5t135 -374.5q0 -229 -133.5 -378.5t-333.5 -149.5t-333.5 149.5t-133.5 378.5zM297 1149.5q1 14.5 8 24.5l150 186q32 37 69 37h90q38 0 70 -37l150 -186q7 -10 8 -24.5t-9.5 -27t-31.5 -12.5h-74q-8 0 -15.5 1t-13.5 3.5 t-10 4.5t-8.5 6.5l-6.5 6.5t-6 7t-5 6l-95 104l-90 -104q-1 -1 -5 -6t-6 -7l-6.5 -6.5t-8.5 -6.5t-10 -4.5t-13.5 -3.5t-15.5 -1h-74q-21 0 -31.5 12.5t-9.5 27zM301 512q0 -149 75.5 -243.5t192.5 -94.5q118 0 193.5 94t75.5 244q0 145 -76 241.5t-193 96.5 q-116 0 -192 -96.5t-76 -241.5z" />
<glyph unicode="&#xf5;" horiz-adv-x="1138" d="M102 512q0 225 135 374.5t332 149.5t332 -149.5t135 -374.5q0 -229 -133.5 -378.5t-333.5 -149.5t-333.5 149.5t-133.5 378.5zM254 1178q0 83 60.5 138.5t134.5 55.5q45 0 87.5 -22t76 -44t57.5 -22q47 0 67 45q14 31 54 31h36q23 0 36.5 -12.5t13.5 -34.5 q0 -83 -59.5 -139t-133.5 -56q-45 0 -88 22t-77.5 44t-57.5 22q-48 0 -68 -45q-14 -31 -53 -31h-37q-22 0 -35.5 12.5t-13.5 35.5zM301 512q0 -149 75.5 -243.5t192.5 -94.5q118 0 193.5 94t75.5 244q0 145 -76 241.5t-193 96.5q-116 0 -192 -96.5t-76 -241.5z" />
<glyph unicode="&#xf6;" horiz-adv-x="1138" d="M102 512q0 225 135 374.5t332 149.5t332 -149.5t135 -374.5q0 -229 -133.5 -378.5t-333.5 -149.5t-333.5 149.5t-133.5 378.5zM240 1266q0 51 38 88t89 37q50 0 88.5 -37.5t38.5 -87.5q0 -49 -38.5 -87t-88.5 -38q-51 0 -89 37.5t-38 87.5zM301 512q0 -149 75.5 -243.5 t192.5 -94.5q118 0 193.5 94t75.5 244q0 145 -76 241.5t-193 96.5q-116 0 -192 -96.5t-76 -241.5zM643 1266q0 51 38 88t89 37q50 0 88.5 -37.5t38.5 -87.5q0 -49 -38.5 -87t-88.5 -38q-51 0 -89 37.5t-38 87.5z" />
<glyph unicode="&#xf7;" horiz-adv-x="1048" d="M102 494v47q0 31 21.5 52t52.5 21h698q30 0 51 -21t21 -52v-47q0 -31 -21.5 -52.5t-50.5 -21.5h-698q-31 0 -52.5 21.5t-21.5 52.5zM395 137q0 59 39.5 98t97.5 39t98 -39t40 -98t-40 -98t-98 -39t-97.5 39t-39.5 98zM395 899q0 59 39.5 98t97.5 39t98 -39t40 -98 t-40 -98t-98 -39t-97.5 39t-39.5 98z" />
<glyph unicode="&#xf8;" horiz-adv-x="1208" d="M113.5 27.5q-2.5 27.5 17.5 52.5l92 113q-88 138 -88 317q0 111 37 209.5t100 167.5t149 109t181 40q124 0 240 -78l86 107q21 24 50.5 27t53.5 -17l35 -28q24 -19 27 -49.5t-17 -53.5l-98 -121q90 -141 90 -313q0 -229 -133 -377.5t-334 -148.5q-130 0 -244 73l-79 -98 q-19 -23 -50 -26t-53 16l-37 31q-23 20 -25.5 47.5zM334 512q0 -84 24 -152l365 451q-61 35 -121 35q-117 0 -192.5 -94.5t-75.5 -239.5zM479 207q68 -33 123 -33q118 0 193 94t75 244q0 80 -24 147z" />
<glyph unicode="&#xf9;" horiz-adv-x="1181" d="M164 391v555q0 31 20 52.5t52 21.5h59q33 0 51.5 -21t18.5 -53v-553q0 -102 57.5 -162.5t157.5 -60.5q78 0 146 53.5t91 120.5v602q0 31 20.5 52.5t53.5 21.5h57q32 0 51 -21t19 -53v-872q0 -31 -21.5 -52.5t-50.5 -21.5h-51q-30 0 -49.5 20t-22.5 52l-2 24 q-45 -49 -119 -80.5t-141 -31.5q-183 0 -290 110.5t-107 296.5zM365 1403q8 20 34 20h125q50 0 66 -41l90 -225q7 -16 -1.5 -31.5t-29.5 -15.5h-69q-38 0 -64 33l-145 223q-14 17 -6 37z" />
<glyph unicode="&#xfa;" horiz-adv-x="1181" d="M164 391v555q0 31 20 52.5t52 21.5h59q33 0 51.5 -21t18.5 -53v-553q0 -102 57.5 -162.5t157.5 -60.5q78 0 146 53.5t91 120.5v602q0 31 20.5 52.5t53.5 21.5h57q32 0 51 -21t19 -53v-872q0 -31 -21.5 -52.5t-50.5 -21.5h-51q-30 0 -49.5 20t-22.5 52l-2 24 q-45 -49 -119 -80.5t-141 -31.5q-183 0 -290 110.5t-107 296.5zM513 1127q-8 17 1 32l109 223q21 41 67 41h119q31 0 38.5 -23.5t-7.5 -37.5l-158 -215q-29 -37 -70 -37h-69q-22 0 -30 17z" />
<glyph unicode="&#xfb;" horiz-adv-x="1181" d="M164 391v555q0 31 20 52.5t52 21.5h59q33 0 51.5 -21t18.5 -53v-553q0 -102 57.5 -162.5t157.5 -60.5q78 0 146 53.5t91 120.5v602q0 31 20.5 52.5t53.5 21.5h57q32 0 51 -21t19 -53v-872q0 -31 -21.5 -52.5t-50.5 -21.5h-51q-30 0 -49.5 20t-22.5 52l-2 24 q-45 -49 -119 -80.5t-141 -31.5q-183 0 -290 110.5t-107 296.5zM324 1149.5q1 14.5 8 24.5l149 186q32 37 70 37h90q38 0 70 -37l149 -186q7 -10 8 -24.5t-9.5 -27t-31.5 -12.5h-73q-19 0 -34 7.5t-17.5 10.5t-14.5 17l-94 104l-90 -104q-1 -1 -4.5 -5.5t-5 -6l-5.5 -5.5 t-7 -6t-8 -4.5t-10 -4t-12 -2.5t-14 -1h-73q-21 0 -31.5 12.5t-9.5 27z" />
<glyph unicode="&#xfc;" horiz-adv-x="1181" d="M164 391v555q0 31 20 52.5t52 21.5h59q33 0 51.5 -21t18.5 -53v-553q0 -102 57.5 -162.5t157.5 -60.5q78 0 146 53.5t91 120.5v602q0 31 20.5 52.5t53.5 21.5h57q32 0 51 -21t19 -53v-872q0 -31 -21.5 -52.5t-50.5 -21.5h-51q-30 0 -49.5 20t-22.5 52l-2 24 q-45 -49 -119 -80.5t-141 -31.5q-183 0 -290 110.5t-107 296.5zM272 1266q0 51 38 88t89 37q50 0 88.5 -37.5t38.5 -87.5q0 -49 -38.5 -87t-88.5 -38q-51 0 -89 37.5t-38 87.5zM676 1266q0 51 38 88t89 37q50 0 88.5 -37.5t38.5 -87.5q0 -49 -38.5 -87t-88.5 -38 q-51 0 -89 37.5t-38 87.5z" />
<glyph unicode="&#xfd;" horiz-adv-x="1081" d="M59 930q-15 37 2.5 63.5t59.5 26.5h78q51 0 67 -43l275 -666l280 668q18 41 66 41h76q41 0 57.5 -27t1.5 -63l-508 -1155q-69 -158 -238 -158q-60 0 -112 16q-57 19 -43 84l12 50q7 29 34 42t58 5q24 -7 47 -7q48 0 64 39l98 238zM472 1127q-8 17 1 32l109 223 q20 41 67 41h119q31 0 38.5 -23.5t-7.5 -37.5l-158 -215q-29 -37 -70 -37h-69q-22 0 -30 17z" />
<glyph unicode="&#xfe;" horiz-adv-x="1163" d="M164 -299v1714q0 31 20.5 52.5t51.5 21.5h55q32 0 53 -21.5t21 -52.5v-471q106 92 235 92q211 0 336 -148.5t125 -377.5q0 -231 -125 -378.5t-336 -147.5q-64 0 -130.5 28t-104.5 68v-379q0 -31 -22 -52.5t-54 -21.5h-53q-31 0 -51.5 21.5t-20.5 52.5zM365 309 q39 -57 100.5 -96t132.5 -39q125 0 192.5 93t67.5 245q0 144 -70.5 239t-189.5 95q-72 0 -132.5 -39t-100.5 -96v-402z" />
<glyph unicode="&#xff;" horiz-adv-x="1081" d="M59 930q-15 37 2.5 63.5t59.5 26.5h78q51 0 67 -43l275 -666l280 668q18 41 66 41h76q41 0 57.5 -27t1.5 -63l-508 -1155q-69 -158 -238 -158q-60 0 -112 16q-57 19 -43 84l12 50q7 29 34 42t58 5q24 -7 47 -7q48 0 64 39l98 238zM213 1266q0 51 38 88t89 37 q50 0 88.5 -37.5t38.5 -87.5q0 -49 -38.5 -87t-88.5 -38q-51 0 -89 37.5t-38 87.5zM616 1266q0 51 38 88t89 37q50 0 88.5 -37.5t38.5 -87.5q0 -49 -38.5 -87t-88.5 -38q-51 0 -89 37.5t-38 87.5z" />
<glyph unicode="&#x152;" horiz-adv-x="2060" d="M133 743q0 221 70.5 393t205.5 270.5t314 98.5q66 0 135 -16h981q31 0 53.5 -23t22.5 -55v-51q0 -34 -22 -55t-54 -21h-686q130 -177 156 -410h387q32 0 55 -22.5t23 -54.5v-52q0 -32 -23 -54.5t-55 -22.5h-381q-18 -272 -162 -463h725q35 0 57.5 -21.5t22.5 -52.5v-55 q0 -31 -22.5 -53.5t-57.5 -22.5h-1022q-69 -16 -133 -16q-136 0 -247.5 56.5t-186.5 157t-115.5 240.5t-40.5 305zM346 743q0 -249 97 -402t278 -153q174 0 277.5 157t103.5 398q0 159 -46 286t-133.5 201.5t-201.5 74.5q-119 0 -205.5 -75.5t-128 -201t-41.5 -285.5z" />
<glyph unicode="&#x153;" horiz-adv-x="1847" d="M102 510q0 111 37 209.5t100 167.5t149 109t181 40q105 0 202 -49t159 -133q64 85 159 133.5t211 48.5q188 0 309 -122.5t126 -301.5v-67q0 -36 -21 -56t-55 -20h-623q-1 -127 76 -213t191 -86q75 0 133.5 35.5t87.5 99.5q24 51 78 51h61q37 0 54.5 -26.5t4.5 -63.5 q-50 -130 -161.5 -206t-257.5 -76q-121 0 -216.5 46t-156.5 130q-60 -82 -156.5 -129t-204.5 -47q-201 0 -334 148.5t-133 377.5zM301 512q0 -149 75.5 -243.5t192.5 -94.5q112 0 189.5 95t77.5 243q0 143 -77.5 238.5t-189.5 95.5q-117 0 -192.5 -94.5t-75.5 -239.5z M1047 645h481q-3 89 -69 150t-163 61q-100 0 -167 -63t-82 -148z" />
<glyph unicode="&#x178;" horiz-adv-x="1269" d="M48.5 1458.5q16.5 30.5 57.5 30.5h87q47 0 71 -43l371 -676l371 676q22 43 71 43h86q37 0 56 -32t0 -64l-480 -848v-469q0 -31 -22 -53.5t-51 -22.5h-60q-32 0 -55 22.5t-23 53.5v469l-475 848q-21 35 -4.5 65.5zM305 1708q0 51 38 88t89 37q50 0 88.5 -37.5t38.5 -87.5 q0 -49 -38.5 -87t-88.5 -38q-51 0 -89 37.5t-38 87.5zM709 1708q0 51 38 88t89 37q50 0 88.5 -37.5t38.5 -87.5q0 -49 -38.5 -87t-88.5 -38q-51 0 -89 37.5t-38 87.5z" />
<glyph unicode="&#x2c6;" horiz-adv-x="1024" d="M242 1149.5q1 14.5 8 24.5l149 186q32 37 70 37h90q38 0 70 -37l149 -186q7 -10 8 -24.5t-9.5 -27t-31.5 -12.5h-73q-19 0 -34 7.5t-17.5 10.5t-14.5 17l-94 104l-90 -104q-1 -1 -4.5 -5.5t-5 -6l-5.5 -5.5t-7 -6t-8 -4.5t-10 -4t-12 -2.5t-14 -1h-73q-21 0 -31.5 12.5 t-9.5 27z" />
<glyph unicode="&#x2dc;" horiz-adv-x="1024" d="M203 1178q0 83 60 138.5t134 55.5q45 0 87.5 -22t76 -44t57.5 -22q48 0 68 45q14 31 53 31h37q23 0 36 -12.5t13 -34.5q0 -83 -59 -139t-133 -56q-45 0 -88 22t-77.5 44t-57.5 22q-48 0 -68 -45q-14 -31 -53 -31h-37q-22 0 -35.5 12.5t-13.5 35.5z" />
<glyph unicode="&#x2000;" horiz-adv-x="954" />
<glyph unicode="&#x2001;" horiz-adv-x="1909" />
<glyph unicode="&#x2002;" horiz-adv-x="954" />
<glyph unicode="&#x2003;" horiz-adv-x="1909" />
<glyph unicode="&#x2004;" horiz-adv-x="636" />
<glyph unicode="&#x2005;" horiz-adv-x="477" />
<glyph unicode="&#x2006;" horiz-adv-x="318" />
<glyph unicode="&#x2007;" horiz-adv-x="318" />
<glyph unicode="&#x2008;" horiz-adv-x="238" />
<glyph unicode="&#x2009;" horiz-adv-x="381" />
<glyph unicode="&#x200a;" horiz-adv-x="106" />
<glyph unicode="&#x2010;" horiz-adv-x="815" d="M123 492v49q0 31 21.5 52t52.5 21h421q31 0 52.5 -21t21.5 -52v-49q0 -31 -21.5 -52.5t-52.5 -21.5h-421q-31 0 -52.5 21.5t-21.5 52.5z" />
<glyph unicode="&#x2011;" horiz-adv-x="815" d="M123 492v49q0 31 21.5 52t52.5 21h421q31 0 52.5 -21t21.5 -52v-49q0 -31 -21.5 -52.5t-52.5 -21.5h-421q-31 0 -52.5 21.5t-21.5 52.5z" />
<glyph unicode="&#x2012;" horiz-adv-x="815" d="M123 492v49q0 31 21.5 52t52.5 21h421q31 0 52.5 -21t21.5 -52v-49q0 -31 -21.5 -52.5t-52.5 -21.5h-421q-31 0 -52.5 21.5t-21.5 52.5z" />
<glyph unicode="&#x2013;" horiz-adv-x="1077" d="M82 494v47q0 31 21.5 52t52.5 21h768q31 0 51 -21t20 -52v-47q0 -31 -20.5 -52.5t-50.5 -21.5h-768q-31 0 -52.5 21.5t-21.5 52.5z" />
<glyph unicode="&#x2014;" horiz-adv-x="1488" d="M0 494v47q0 31 21.5 52t52.5 21h1343q31 0 51.5 -21t20.5 -52v-47q0 -31 -20.5 -52.5t-51.5 -21.5h-1343q-31 0 -52.5 21.5t-21.5 52.5z" />
<glyph unicode="&#x2018;" horiz-adv-x="552" d="M106.5 1084q-8.5 28 6.5 57l157 311q12 26 41.5 35t55.5 -4l45 -23q26 -12 34 -37.5t-6 -54.5l-139 -315q-12 -28 -39.5 -37.5t-56.5 2.5l-62 26q-28 12 -36.5 40z" />
<glyph unicode="&#x2019;" horiz-adv-x="552" d="M107 1078q-8 26 6 55l139 315q12 28 39.5 37.5t56.5 -2.5l62 -27q28 -12 36.5 -39.5t-6.5 -56.5l-157 -311q-12 -26 -41.5 -35t-55.5 4l-45 22q-26 12 -34 38z" />
<glyph unicode="&#x201a;" horiz-adv-x="552" d="M107 -142.5q-8 25.5 6 54.5l139 315q12 28 39.5 37.5t56.5 -2.5l62 -26q28 -12 36.5 -40t-6.5 -57l-157 -311q-12 -26 -41.5 -35t-55.5 4l-45 23q-26 12 -34 37.5z" />
<glyph unicode="&#x201c;" horiz-adv-x="825" d="M87 1091.5q-10 26.5 3 55.5l150 307q12 26 39.5 34t54.5 -3l41 -17q26 -12 33 -37.5t-5 -54.5l-124 -313q-10 -26 -38 -36.5t-53 -0.5l-63 27q-28 12 -38 38.5zM419 1091.5q-10 26.5 3 55.5l149 307q12 26 40 34t55 -3l41 -17q26 -12 33 -37.5t-5 -54.5l-125 -313 q-10 -26 -37.5 -36.5t-52.5 -0.5l-63 27q-28 12 -38 38.5z" />
<glyph unicode="&#x201d;" horiz-adv-x="825" d="M85.5 1080q-7.5 26 4.5 55l125 313q10 26 37.5 36.5t52.5 0.5l64 -27q28 -12 37.5 -38.5t-3.5 -55.5l-149 -307q-12 -26 -39.5 -34t-54.5 3l-41 16q-26 12 -33.5 38zM417.5 1080q-8.5 26 4.5 55l125 313q10 27 39 37.5t55 -0.5l64 -27q25 -12 34 -38t-4 -56l-149 -307 q-12 -25 -39 -33.5t-51 2.5l-41 16q-29 12 -37.5 38z" />
<glyph unicode="&#x201e;" horiz-adv-x="825" d="M85.5 -142.5q-7.5 25.5 4.5 54.5l125 313q10 26 37.5 36.5t52.5 0.5l64 -26q28 -12 37.5 -39t-3.5 -56l-149 -307q-12 -26 -39.5 -34t-54.5 3l-41 17q-26 12 -33.5 37.5zM417.5 -142.5q-8.5 25.5 4.5 54.5l125 313q10 27 39 37.5t55 -0.5l64 -26q25 -12 34 -39t-4 -56 l-149 -307q-12 -25 -39 -33.5t-51 2.5l-41 17q-29 12 -37.5 37.5z" />
<glyph unicode="&#x2022;" horiz-adv-x="636" d="M102 614q0 93 64 157.5t153 64.5q87 0 151.5 -65.5t64.5 -156.5q0 -88 -64.5 -151.5t-151.5 -63.5q-88 0 -152.5 63t-64.5 152z" />
<glyph unicode="&#x2026;" horiz-adv-x="1564" d="M82 147q0 64 42.5 106t104.5 42t105 -42t43 -106t-43 -105.5t-105 -41.5t-104.5 41.5t-42.5 105.5zM635 147q0 64 42.5 106t104.5 42t105 -42t43 -106t-43 -105.5t-105 -41.5t-104.5 41.5t-42.5 105.5zM1188 147q0 64 42.5 106t104.5 42t105 -42t43 -106t-43 -105.5 t-105 -41.5t-104.5 41.5t-42.5 105.5z" />
<glyph unicode="&#x202f;" horiz-adv-x="381" />
<glyph unicode="&#x2039;" horiz-adv-x="811" d="M123 576q0 27 24 51l375 372q24 23 53 22.5t50 -22.5l37 -38q23 -23 23 -50.5t-23 -50.5l-263 -246l-47 -36l47 -37l267 -252q21 -21 22 -48t-22 -51l-39 -38q-24 -23 -52.5 -22.5t-50.5 22.5l-377 372q-24 25 -24 52z" />
<glyph unicode="&#x203a;" horiz-adv-x="811" d="M123 241q1 27 22 48l267 252l47 37l-47 36l-262 246q-23 23 -23 50.5t23 50.5l36 38q21 22 50 22.5t53 -22.5l375 -372q24 -24 24 -51t-24 -52l-377 -372q-22 -22 -50.5 -22.5t-52.5 22.5l-39 38q-23 24 -22 51z" />
<glyph unicode="&#x205f;" horiz-adv-x="477" />
<glyph unicode="&#x20ac;" horiz-adv-x="1396" d="M61 539v43q0 32 23.5 54.5t54.5 22.5h60q-2 27 -2 84q0 51 2 78h-60q-31 0 -54.5 23t-23.5 55v43q0 32 23.5 55t54.5 23h90q60 226 204 355.5t351 129.5q200 0 337.5 -116t185.5 -314q8 -30 -5 -54.5t-42 -33.5l-62 -18q-31 -11 -59.5 3t-38.5 46q-20 66 -45.5 114.5 t-62.5 89t-89.5 61.5t-118.5 22q-247 0 -335 -285h342q32 0 53.5 -22.5t21.5 -55.5v-43q0 -33 -21.5 -55.5t-53.5 -22.5h-377q-2 -27 -2 -78q0 -57 2 -84h377q32 0 53.5 -22.5t21.5 -54.5v-43q0 -33 -21.5 -55.5t-53.5 -22.5h-336q46 -129 126.5 -200t192.5 -71 q124 0 199.5 59t134.5 179q26 57 86 57h74q37 0 55.5 -29t3.5 -65q-84 -207 -220 -307t-337 -100q-200 0 -340.5 128.5t-198.5 348.5h-92q-31 0 -54.5 23t-23.5 55z" />
<glyph unicode="&#x2122;" horiz-adv-x="1820" d="M41 1380v50q0 28 17 43.5t46 15.5h551q29 0 46.5 -15.5t17.5 -43.5v-50q0 -25 -17.5 -41t-46.5 -16h-182v-645q0 -29 -15.5 -46.5t-43.5 -17.5h-58q-25 0 -41 17.5t-16 46.5v645h-195q-29 0 -46 16t-17 41zM793 678v752q0 28 17 43.5t46 15.5h100q57 0 78 -49l201 -457 l201 457q21 49 77 49h101q29 0 46 -15.5t17 -43.5v-752q0 -29 -16 -46.5t-41 -17.5h-49q-28 0 -44 17.5t-16 46.5l2 557l-176 -406q-19 -47 -67 -47h-70q-48 0 -67 47l-177 406l2 -557q0 -29 -15.5 -46.5t-43.5 -17.5h-49q-25 0 -41 17.5t-16 46.5z" />
<glyph unicode="&#x25fc;" horiz-adv-x="1024" d="M0 0v1024h1024v-1024h-1024z" />
</font>
</defs>
</svg>
